<svg width="820" height="312" viewBox="0 0 820 312" fill="none" xmlns="http://www.w3.org/2000/svg">
<g clip-path="url(#clip0_1_2)">
<rect width="820" height="312" fill="url(#paint0_linear_1_2)"/>
<g filter="url(#filter0_d_1_2)">
<path d="M-87 255.886C212.2 183.886 672.333 315.219 865 389.886" stroke="#EFBB34" stroke-width="13" stroke-linecap="round"/>
</g>
<g filter="url(#filter1_d_1_2)">
<circle cx="602.5" cy="0.5" r="40.5" fill="#AA67FF"/>
</g>
<g filter="url(#filter2_d_1_2)">
<path d="M566 -79C524.4 123.4 785.333 243.333 921 278" stroke="#34EF95" stroke-width="13" stroke-linecap="round"/>
</g>
<g filter="url(#filter3_d_1_2)">
<path d="M-78.9692 155.588C159.166 64.3871 428.503 249.611 428.863 130.247C429.224 10.8823 334.115 -131.625 200.507 -125.813" stroke="#FF6C58" stroke-width="13" stroke-linecap="round"/>
</g>
<g filter="url(#filter4_d_1_2)">
<circle cx="234.5" cy="254.5" r="15.5" fill="#AA67FF"/>
</g>
<g filter="url(#filter5_d_1_2)">
<circle cx="107.5" cy="45.5" r="20.5" fill="#AA67FF"/>
</g>
<g filter="url(#filter6_d_1_2)">
<path d="M800.984 200.994L728.65 262.748L711.336 169.228L800.984 200.994Z" fill="#FF6C58"/>
</g>
<g filter="url(#filter7_d_1_2)">
<path d="M71.0304 184.753L43.7185 195.538L48.035 166.493L71.0304 184.753Z" fill="#AA67FF"/>
</g>
<g filter="url(#filter8_d_1_2)">
<path d="M281.993 75.8414L288.115 130.928L237.348 108.686L281.993 75.8414Z" fill="#F8C032"/>
</g>
<g filter="url(#filter9_bdd_1_2)">
<rect x="-29" y="95" width="873" height="122" rx="2" fill="black" fill-opacity="0.13" shape-rendering="crispEdges"/>
<rect x="-28.5" y="95.5" width="872" height="121" rx="1.5" stroke="white" stroke-opacity="0.29" shape-rendering="crispEdges"/>
</g>
<path d="M230.514 154C230.3 154 230.194 153.893 230.194 153.68L230.258 109.712C230.258 109.541 230.343 109.456 230.514 109.456H237.682C237.852 109.456 237.938 109.541 237.938 109.712L238.002 153.68C238.002 153.893 237.916 154 237.746 154H230.514ZM250.927 154C250.586 154 250.415 153.851 250.415 153.552L250.351 109.968C250.351 109.627 250.522 109.456 250.863 109.456H256.623L267.439 134.672L267.119 109.968C267.119 109.627 267.311 109.456 267.695 109.456H274.031C274.287 109.456 274.415 109.627 274.415 109.968L274.479 153.616C274.479 153.872 274.373 154 274.159 154H268.527L257.455 130.448L257.903 153.488C257.903 153.829 257.711 154 257.327 154H250.927ZM287.079 154C286.865 154 286.759 153.893 286.759 153.68L286.887 109.712C286.887 109.541 286.972 109.456 287.143 109.456L299.111 109.392C301.457 109.349 303.591 109.904 305.511 111.056C307.473 112.208 309.031 113.765 310.183 115.728C311.335 117.648 311.911 119.781 311.911 122.128V140.496C311.911 142.971 311.313 145.232 310.119 147.28C308.924 149.285 307.324 150.885 305.319 152.08C303.313 153.275 301.052 153.893 298.535 153.936L287.079 154ZM294.567 146.128H298.535C300.113 146.128 301.436 145.573 302.503 144.464C303.612 143.355 304.167 142.032 304.167 140.496V122.064C304.167 120.699 303.655 119.525 302.631 118.544C301.649 117.52 300.476 117.029 299.111 117.072L294.631 117.136L294.567 146.128ZM323.922 154C323.752 154 323.666 153.893 323.666 153.68L323.794 109.712C323.794 109.541 323.88 109.456 324.05 109.456H336.978C339.282 109.456 341.394 110.032 343.314 111.184C345.277 112.293 346.834 113.808 347.986 115.728C349.138 117.605 349.714 119.739 349.714 122.128C349.714 123.707 349.48 125.136 349.01 126.416C348.541 127.653 347.986 128.72 347.346 129.616C346.706 130.469 346.13 131.109 345.618 131.536C347.922 134.096 349.074 137.104 349.074 140.56L349.138 153.68C349.138 153.893 349.032 154 348.818 154H341.586C341.416 154 341.33 153.936 341.33 153.808V140.56C341.33 139.024 340.776 137.701 339.666 136.592C338.6 135.44 337.277 134.864 335.698 134.864H331.474L331.41 153.68C331.41 153.893 331.325 154 331.154 154H323.922ZM331.474 127.184H336.978C338.301 127.184 339.474 126.693 340.498 125.712C341.522 124.731 342.034 123.536 342.034 122.128C342.034 120.763 341.522 119.589 340.498 118.608C339.517 117.627 338.344 117.136 336.978 117.136H331.474V127.184ZM359.085 153.68L367.021 109.712C367.064 109.541 367.171 109.456 367.341 109.456H376.621C376.792 109.456 376.899 109.541 376.941 109.712L384.557 153.68C384.6 153.893 384.515 154 384.301 154H377.197C377.027 154 376.92 153.893 376.877 153.68L376.173 149.008H367.469L366.765 153.68C366.723 153.893 366.616 154 366.445 154H359.341C359.171 154 359.085 153.893 359.085 153.68ZM368.749 142.16H374.893L372.269 124.176L371.885 121.808L371.629 124.176L368.749 142.16ZM395.87 154C395.528 154 395.358 153.851 395.358 153.552L395.294 109.968C395.294 109.627 395.464 109.456 395.806 109.456H401.566L412.382 134.672L412.062 109.968C412.062 109.627 412.254 109.456 412.638 109.456H418.974C419.23 109.456 419.358 109.627 419.358 109.968L419.422 153.616C419.422 153.872 419.315 154 419.102 154H413.47L402.398 130.448L402.846 153.488C402.846 153.829 402.654 154 402.27 154H395.87ZM432.021 154C431.808 154 431.701 153.893 431.701 153.68L431.765 109.712C431.765 109.541 431.851 109.456 432.021 109.456H439.189C439.36 109.456 439.445 109.541 439.445 109.712L439.509 153.68C439.509 153.893 439.424 154 439.253 154H432.021ZM452.74 154C452.569 154 452.484 153.893 452.484 153.68L452.548 109.776C452.548 109.563 452.654 109.456 452.868 109.456H459.972C460.185 109.456 460.292 109.563 460.292 109.776L460.228 146.128H473.412C473.625 146.128 473.732 146.235 473.732 146.448V153.68C473.732 153.893 473.625 154 473.412 154H452.74ZM498.619 154C498.405 154 498.299 153.893 498.299 153.68L498.427 109.712C498.427 109.541 498.512 109.456 498.683 109.456L510.651 109.392C512.997 109.349 515.131 109.904 517.051 111.056C519.013 112.208 520.571 113.765 521.723 115.728C522.875 117.648 523.451 119.781 523.451 122.128V140.496C523.451 142.971 522.853 145.232 521.659 147.28C520.464 149.285 518.864 150.885 516.859 152.08C514.853 153.275 512.592 153.893 510.075 153.936L498.619 154ZM506.107 146.128H510.075C511.653 146.128 512.976 145.573 514.043 144.464C515.152 143.355 515.707 142.032 515.707 140.496V122.064C515.707 120.699 515.195 119.525 514.171 118.544C513.189 117.52 512.016 117.029 510.651 117.072L506.171 117.136L506.107 146.128ZM531.093 153.68L539.029 109.712C539.071 109.541 539.178 109.456 539.349 109.456H548.629C548.799 109.456 548.906 109.541 548.949 109.712L556.565 153.68C556.607 153.893 556.522 154 556.309 154H549.205C549.034 154 548.927 153.893 548.885 153.68L548.181 149.008H539.477L538.773 153.68C538.73 153.893 538.623 154 538.453 154H531.349C531.178 154 531.093 153.893 531.093 153.68ZM540.757 142.16H546.901L544.277 124.176L543.893 121.808L543.637 124.176L540.757 142.16ZM576.931 154.64C574.627 154.64 572.515 154.064 570.595 152.912C568.718 151.717 567.203 150.16 566.051 148.24C564.942 146.277 564.387 144.123 564.387 141.776V138.832C564.387 138.619 564.494 138.512 564.707 138.512H571.875C572.046 138.512 572.131 138.619 572.131 138.832V141.776C572.131 143.184 572.601 144.4 573.539 145.424C574.478 146.405 575.609 146.896 576.931 146.896C578.254 146.896 579.385 146.384 580.323 145.36C581.262 144.336 581.731 143.141 581.731 141.776C581.731 140.197 580.707 138.832 578.659 137.68C577.977 137.296 576.91 136.699 575.459 135.888C574.009 135.077 572.643 134.309 571.363 133.584C569.017 132.219 567.267 130.512 566.115 128.464C565.006 126.373 564.451 124.027 564.451 121.424C564.451 119.035 565.027 116.901 566.179 115.024C567.331 113.104 568.846 111.589 570.723 110.48C572.643 109.371 574.713 108.816 576.931 108.816C579.193 108.816 581.262 109.392 583.139 110.544C585.059 111.653 586.574 113.168 587.683 115.088C588.835 116.965 589.411 119.077 589.411 121.424V126.672C589.411 126.843 589.326 126.928 589.155 126.928H581.987C581.817 126.928 581.731 126.843 581.731 126.672L581.667 121.424C581.667 119.931 581.198 118.715 580.259 117.776C579.321 116.837 578.211 116.368 576.931 116.368C575.609 116.368 574.478 116.88 573.539 117.904C572.601 118.885 572.131 120.059 572.131 121.424C572.131 122.832 572.43 124.005 573.027 124.944C573.625 125.883 574.713 126.779 576.291 127.632C576.505 127.76 576.91 127.995 577.507 128.336C578.147 128.635 578.83 128.997 579.555 129.424C580.281 129.808 580.921 130.149 581.475 130.448C582.073 130.747 582.435 130.939 582.563 131.024C584.697 132.219 586.382 133.691 587.619 135.44C588.857 137.147 589.475 139.259 589.475 141.776C589.475 144.208 588.899 146.405 587.747 148.368C586.638 150.288 585.123 151.824 583.203 152.976C581.326 154.085 579.235 154.64 576.931 154.64Z" fill="white" fill-opacity="0.68"/>
<path d="M180.06 202C179.42 202 178.887 201.765 178.46 201.296C178.055 200.827 177.895 199.941 177.98 198.64C178.066 197.296 178.482 195.568 179.228 193.456C179.975 191.344 180.946 188.859 182.14 186C182.524 185.083 182.908 184.059 183.292 182.928C183.698 181.797 184.039 180.667 184.316 179.536C184.594 178.384 184.732 177.349 184.732 176.432C184.732 175.792 184.647 175.237 184.476 174.768C184.327 174.277 184.05 173.915 183.644 173.68C183.175 173.381 182.674 173.168 182.14 173.04C181.607 172.912 181.042 172.848 180.444 172.848C179.1 172.848 177.682 173.157 176.188 173.776C174.716 174.395 173.287 175.248 171.9 176.336C170.535 177.403 169.308 178.619 168.22 179.984C167.154 181.349 166.343 182.768 165.788 184.24C165.468 185.115 165.234 185.936 165.084 186.704C164.935 187.472 164.86 188.165 164.86 188.784C164.86 189.957 165.074 190.939 165.5 191.728C165.948 192.496 166.524 193.072 167.228 193.456C167.954 193.819 168.732 194 169.564 194C170.354 194 171.1 193.861 171.804 193.584C172.722 193.243 173.543 192.667 174.268 191.856C174.994 191.045 175.57 190.149 175.996 189.168C176.423 188.165 176.636 187.248 176.636 186.416C176.636 185.691 176.444 185.083 176.06 184.592C175.698 184.101 175.09 183.856 174.236 183.856C174.108 183.856 173.98 183.856 173.852 183.856C173.746 183.856 173.618 183.877 173.468 183.92C173.383 183.941 173.308 183.952 173.244 183.952C173.18 183.952 173.127 183.952 173.084 183.952C172.892 183.952 172.796 183.909 172.796 183.824C172.796 183.696 172.999 183.557 173.404 183.408C174.066 183.195 174.684 183.088 175.26 183.088C176.263 183.088 177.01 183.387 177.5 183.984C177.991 184.56 178.236 185.296 178.236 186.192C178.236 187.088 177.991 188.059 177.5 189.104C177.01 190.128 176.284 191.109 175.324 192.048C174.386 192.987 173.202 193.755 171.772 194.352C171.004 194.672 170.215 194.832 169.404 194.832C168.295 194.832 167.25 194.544 166.268 193.968C165.287 193.392 164.487 192.571 163.868 191.504C163.25 190.437 162.94 189.179 162.94 187.728C162.94 187.024 163.026 186.288 163.196 185.52C163.367 184.752 163.634 183.941 163.996 183.088C164.7 181.445 165.66 179.952 166.876 178.608C168.092 177.243 169.447 176.069 170.94 175.088C172.455 174.085 174.002 173.317 175.58 172.784C177.159 172.251 178.663 171.984 180.092 171.984C181.351 171.984 182.492 172.208 183.516 172.656C184.647 173.147 185.436 173.851 185.884 174.768C186.354 175.664 186.588 176.677 186.588 177.808C186.588 179.045 186.375 180.368 185.948 181.776C185.543 183.163 185.042 184.528 184.444 185.872C183.783 187.387 183.132 188.965 182.492 190.608C181.852 192.251 181.298 193.808 180.828 195.28C180.359 196.752 180.028 197.979 179.836 198.96C179.794 199.195 179.762 199.397 179.74 199.568C179.719 199.76 179.708 199.92 179.708 200.048C179.708 200.795 179.954 201.168 180.444 201.168C180.743 201.168 181.095 201.04 181.5 200.784C182.29 200.315 183.09 199.611 183.9 198.672C184.711 197.733 185.511 196.667 186.3 195.472C187.111 194.256 187.89 193.019 188.636 191.76C189.383 190.48 190.098 189.275 190.78 188.144C191.463 187.013 192.082 186.053 192.636 185.264C192.978 184.795 193.298 184.453 193.596 184.24C193.895 184.005 194.151 183.888 194.364 183.888C194.812 183.888 195.036 184.229 195.036 184.912C195.036 185.317 194.94 185.808 194.748 186.384C194.471 187.195 194.098 188.123 193.628 189.168C193.159 190.192 192.722 191.237 192.316 192.304C191.911 193.349 191.644 194.331 191.516 195.248C191.495 195.483 191.474 195.696 191.452 195.888C191.452 196.059 191.452 196.24 191.452 196.432C191.452 197.541 191.676 198.331 192.124 198.8C192.572 199.291 193.159 199.536 193.884 199.536C194.716 199.536 195.655 199.269 196.7 198.736C197.767 198.203 198.834 197.499 199.9 196.624C200.967 195.728 201.927 194.747 202.78 193.68C203.655 192.613 204.316 191.547 204.764 190.48C205.255 189.307 205.628 188.165 205.884 187.056C206.14 185.947 206.268 184.933 206.268 184.016C206.268 182.544 205.948 181.349 205.308 180.432C204.668 179.493 203.666 179.024 202.3 179.024C202.194 179.024 202.076 179.035 201.948 179.056C201.82 179.056 201.682 179.067 201.532 179.088C201.02 179.216 200.647 179.28 200.412 179.28C200.135 179.28 199.996 179.216 199.996 179.088C199.996 178.917 200.21 178.725 200.636 178.512C201.063 178.299 201.511 178.235 201.98 178.32C203.004 178.235 203.964 178.469 204.86 179.024C205.778 179.557 206.514 180.368 207.068 181.456C207.623 182.523 207.9 183.824 207.9 185.36C207.9 186.149 207.815 187.003 207.644 187.92C207.474 188.837 207.186 189.797 206.78 190.8C206.247 192.144 205.5 193.392 204.54 194.544C203.58 195.696 202.503 196.709 201.308 197.584C200.135 198.459 198.93 199.131 197.692 199.6C196.476 200.091 195.335 200.336 194.268 200.336C193.052 200.336 192.028 199.952 191.196 199.184C190.386 198.437 189.98 197.221 189.98 195.536C189.98 194.832 190.044 194.117 190.172 193.392C190.3 192.667 190.45 192.027 190.62 191.472C190.258 192.069 189.778 192.816 189.18 193.712C188.583 194.587 187.9 195.504 187.132 196.464C186.386 197.424 185.607 198.32 184.796 199.152C183.986 200.005 183.175 200.688 182.364 201.2C181.554 201.733 180.786 202 180.06 202ZM210.767 198.128C209.978 198.128 209.263 197.872 208.623 197.36C208.004 196.848 207.695 196.069 207.695 195.024C207.695 194.064 207.93 193.04 208.399 191.952C208.868 190.843 209.466 189.872 210.191 189.04C210.81 188.315 211.503 187.717 212.271 187.248C213.039 186.779 213.764 186.544 214.447 186.544C214.916 186.544 215.322 186.672 215.663 186.928C216.026 187.205 216.207 187.6 216.207 188.112C216.207 188.645 216.004 189.232 215.599 189.872C215.194 190.512 214.618 191.109 213.871 191.664C213.551 191.899 213.146 192.123 212.655 192.336C212.164 192.549 211.674 192.731 211.183 192.88C210.692 193.008 210.287 193.072 209.967 193.072C209.86 193.328 209.754 193.669 209.647 194.096C209.562 194.523 209.519 194.96 209.519 195.408C209.519 195.941 209.626 196.421 209.839 196.848C210.052 197.275 210.447 197.488 211.023 197.488C211.727 197.488 212.367 197.285 212.943 196.88C213.519 196.475 214.031 195.973 214.479 195.376C214.927 194.757 215.3 194.139 215.599 193.52C215.919 192.901 216.175 192.379 216.367 191.952C216.495 191.653 216.666 191.504 216.879 191.504C216.986 191.504 217.039 191.557 217.039 191.664C217.039 191.749 217.007 191.856 216.943 191.984C216.644 192.624 216.324 193.307 215.983 194.032C215.642 194.736 215.236 195.408 214.767 196.048C214.298 196.667 213.732 197.168 213.071 197.552C212.431 197.936 211.663 198.128 210.767 198.128ZM210.191 192.496C210.49 192.496 210.991 192.389 211.695 192.176C212.399 191.941 213.039 191.579 213.615 191.088C214.17 190.597 214.596 190.064 214.895 189.488C215.194 188.891 215.343 188.389 215.343 187.984C215.343 187.515 215.172 187.28 214.831 187.28C214.575 187.28 214.223 187.451 213.775 187.792C213.327 188.133 212.772 188.709 212.111 189.52C211.706 190.032 211.322 190.587 210.959 191.184C210.596 191.781 210.34 192.219 210.191 192.496ZM218.737 198.032C217.819 198.032 217.137 197.797 216.689 197.328C216.241 196.859 216.017 196.272 216.017 195.568C216.017 195.227 216.059 194.896 216.145 194.576C216.273 194.085 216.454 193.541 216.689 192.944C216.945 192.325 217.233 191.696 217.553 191.056C216.806 192.507 216.123 193.733 215.505 194.736C214.907 195.717 214.449 196.357 214.129 196.656C214.065 196.72 214.001 196.752 213.937 196.752C213.83 196.752 213.777 196.699 213.777 196.592C213.777 196.507 213.809 196.421 213.873 196.336C214.321 195.739 214.833 194.917 215.409 193.872C216.006 192.827 216.635 191.664 217.297 190.384C217.958 189.083 218.63 187.771 219.313 186.448C219.995 185.125 220.657 183.877 221.297 182.704C221.958 181.531 222.555 180.539 223.089 179.728C223.473 179.152 223.835 178.747 224.177 178.512C224.518 178.256 224.87 178.128 225.233 178.128H225.393C225.585 178.128 225.798 178.16 226.033 178.224C226.289 178.288 226.523 178.299 226.737 178.256C226.459 178.555 226.033 179.088 225.457 179.856C224.902 180.603 224.273 181.488 223.569 182.512C222.886 183.515 222.193 184.581 221.489 185.712C220.806 186.821 220.198 187.909 219.665 188.976C219.153 190 218.694 191.099 218.289 192.272C217.905 193.424 217.713 194.437 217.713 195.312C217.713 195.824 217.798 196.251 217.969 196.592C218.139 196.933 218.427 197.147 218.833 197.232C219.515 197.381 220.433 196.773 221.585 195.408C222.033 194.875 222.481 194.245 222.929 193.52C223.377 192.773 223.729 192.08 223.985 191.44C224.347 190.587 224.529 189.808 224.529 189.104C224.529 188.571 224.39 188.144 224.113 187.824C223.857 187.504 223.419 187.376 222.801 187.44H222.673C222.289 187.44 222.097 187.333 222.097 187.12C222.097 187.035 222.15 186.949 222.257 186.864C222.385 186.779 222.555 186.736 222.769 186.736C222.833 186.736 222.897 186.747 222.961 186.768C223.046 186.768 223.131 186.779 223.217 186.8C224.177 186.949 224.859 187.344 225.265 187.984C225.691 188.603 225.905 189.317 225.905 190.128C225.905 190.299 225.894 190.491 225.873 190.704C225.851 190.896 225.819 191.109 225.777 191.344C225.606 192.219 225.275 193.115 224.785 194.032C224.294 194.928 223.686 195.717 222.961 196.4C222.257 197.083 221.467 197.541 220.593 197.776C220.23 197.861 219.889 197.925 219.569 197.968C219.27 198.011 218.993 198.032 218.737 198.032ZM239.583 199.248C239.092 199.248 238.591 199.216 238.079 199.152C236.735 198.981 235.743 198.587 235.103 197.968C234.484 197.328 234.175 196.645 234.175 195.92C234.175 195.131 234.516 194.416 235.199 193.776C235.903 193.136 236.895 192.816 238.175 192.816C239.028 192.816 239.956 192.987 240.959 193.328C241.386 193.456 241.908 193.68 242.527 194C243.167 194.299 243.796 194.608 244.415 194.928C245.034 195.248 245.514 195.504 245.855 195.696C246.794 194.779 247.658 193.723 248.447 192.528C249.258 191.312 250.026 190.021 250.751 188.656C251.476 187.269 252.212 185.872 252.959 184.464C253.706 183.056 254.484 181.691 255.295 180.368C256.127 179.024 257.044 177.797 258.047 176.688C256.938 176.005 255.711 175.483 254.367 175.12C253.044 174.736 251.679 174.544 250.271 174.544C249.738 174.544 249.194 174.576 248.639 174.64C248.106 174.704 247.562 174.789 247.007 174.896C245.023 175.323 243.348 176.005 241.983 176.944C240.618 177.861 239.583 178.875 238.879 179.984C238.196 181.072 237.855 182.107 237.855 183.088C237.855 183.813 238.047 184.453 238.431 185.008C238.815 185.563 239.402 185.957 240.191 186.192C240.767 186.363 241.268 186.448 241.695 186.448C242.399 186.448 243.007 186.309 243.519 186.032C244.052 185.733 244.5 185.371 244.863 184.944C245.226 184.517 245.492 184.101 245.663 183.696C245.855 183.291 245.962 182.96 245.983 182.704C245.983 182.555 246.079 182.48 246.271 182.48C246.57 182.48 246.687 182.661 246.623 183.024C246.516 183.877 246.196 184.624 245.663 185.264C245.13 185.883 244.49 186.373 243.743 186.736C242.996 187.077 242.228 187.248 241.439 187.248C240.927 187.248 240.394 187.163 239.839 186.992C238.858 186.651 238.026 186.064 237.343 185.232C236.682 184.379 236.351 183.376 236.351 182.224C236.351 181.093 236.724 179.963 237.471 178.832C238.239 177.68 239.455 176.645 241.119 175.728C242.783 174.811 244.959 174.16 247.647 173.776C248.543 173.648 249.45 173.584 250.367 173.584C251.882 173.584 253.364 173.765 254.815 174.128C256.287 174.491 257.674 175.013 258.975 175.696L259.775 174.768C259.967 174.597 260.234 174.384 260.575 174.128C260.938 173.872 261.3 173.627 261.663 173.392C262.026 173.157 262.292 173.008 262.463 172.944C262.74 172.837 262.964 172.784 263.135 172.784C263.263 172.784 263.327 172.816 263.327 172.88C263.327 173.029 263.156 173.211 262.815 173.424C262.602 173.573 262.41 173.744 262.239 173.936C262.068 174.107 261.94 174.245 261.855 174.352C261.535 174.8 261.279 175.163 261.087 175.44C260.916 175.717 260.682 176.08 260.383 176.528C262.346 177.829 263.946 179.515 265.183 181.584C266.42 183.632 267.039 185.979 267.039 188.624C267.039 189.179 267.007 189.744 266.943 190.32C266.815 191.685 266.442 192.923 265.823 194.032C265.204 195.141 264.394 196.08 263.391 196.848C262.41 197.616 261.311 198.203 260.095 198.608C258.9 199.035 257.642 199.248 256.319 199.248C255.828 199.248 255.338 199.216 254.847 199.152C252.756 198.896 251.028 198.555 249.663 198.128C248.319 197.723 247.135 197.296 246.111 196.848C244.17 198.448 241.994 199.248 239.583 199.248ZM255.775 198.288C257.482 198.288 258.986 197.925 260.287 197.2C261.61 196.453 262.676 195.483 263.487 194.288C264.298 193.093 264.778 191.803 264.927 190.416C264.991 189.904 265.023 189.392 265.023 188.88C265.023 186.555 264.522 184.443 263.519 182.544C262.538 180.624 261.236 179.013 259.615 177.712C258.676 179.184 257.706 180.741 256.703 182.384C255.722 184.027 254.73 185.659 253.727 187.28C252.724 188.88 251.743 190.363 250.783 191.728C249.844 193.093 248.959 194.224 248.127 195.12C247.978 195.248 247.786 195.44 247.551 195.696C247.338 195.931 247.114 196.123 246.879 196.272C247.882 196.72 249.023 197.125 250.303 197.488C251.583 197.851 253.087 198.107 254.815 198.256C255.007 198.277 255.167 198.288 255.295 198.288C255.444 198.288 255.604 198.288 255.775 198.288ZM238.879 198.256C240.052 198.32 241.151 198.181 242.175 197.84C243.199 197.477 244.148 196.976 245.023 196.336C244.255 195.973 243.476 195.6 242.687 195.216C241.898 194.811 241.066 194.448 240.191 194.128C239.615 193.936 239.103 193.84 238.655 193.84C237.866 193.84 237.268 194.064 236.863 194.512C236.458 194.939 236.255 195.419 236.255 195.952C236.255 196.528 236.479 197.051 236.927 197.52C237.375 197.968 238.026 198.213 238.879 198.256ZM270.736 198.128C269.947 198.128 269.232 197.872 268.592 197.36C267.973 196.848 267.664 196.069 267.664 195.024C267.664 194.064 267.899 193.04 268.368 191.952C268.837 190.843 269.435 189.872 270.16 189.04C270.779 188.315 271.472 187.717 272.24 187.248C273.008 186.779 273.733 186.544 274.416 186.544C274.885 186.544 275.291 186.672 275.632 186.928C275.995 187.205 276.176 187.6 276.176 188.112C276.176 188.645 275.973 189.232 275.568 189.872C275.163 190.512 274.587 191.109 273.84 191.664C273.52 191.899 273.115 192.123 272.624 192.336C272.133 192.549 271.643 192.731 271.152 192.88C270.661 193.008 270.256 193.072 269.936 193.072C269.829 193.328 269.723 193.669 269.616 194.096C269.531 194.523 269.488 194.96 269.488 195.408C269.488 195.941 269.595 196.421 269.808 196.848C270.021 197.275 270.416 197.488 270.992 197.488C271.696 197.488 272.336 197.285 272.912 196.88C273.488 196.475 274 195.973 274.448 195.376C274.896 194.757 275.269 194.139 275.568 193.52C275.888 192.901 276.144 192.379 276.336 191.952C276.464 191.653 276.635 191.504 276.848 191.504C276.955 191.504 277.008 191.557 277.008 191.664C277.008 191.749 276.976 191.856 276.912 191.984C276.613 192.624 276.293 193.307 275.952 194.032C275.611 194.736 275.205 195.408 274.736 196.048C274.267 196.667 273.701 197.168 273.04 197.552C272.4 197.936 271.632 198.128 270.736 198.128ZM270.16 192.496C270.459 192.496 270.96 192.389 271.664 192.176C272.368 191.941 273.008 191.579 273.584 191.088C274.139 190.597 274.565 190.064 274.864 189.488C275.163 188.891 275.312 188.389 275.312 187.984C275.312 187.515 275.141 187.28 274.8 187.28C274.544 187.28 274.192 187.451 273.744 187.792C273.296 188.133 272.741 188.709 272.08 189.52C271.675 190.032 271.291 190.587 270.928 191.184C270.565 191.781 270.309 192.219 270.16 192.496ZM277.553 198.224C276.892 198.224 276.433 198.053 276.177 197.712C275.921 197.371 275.793 196.933 275.793 196.4C275.793 195.845 275.889 195.216 276.081 194.512C276.295 193.808 276.519 193.115 276.753 192.432C276.604 192.645 276.455 192.752 276.305 192.752C276.22 192.752 276.156 192.709 276.113 192.624C276.071 192.539 276.081 192.443 276.145 192.336C276.252 192.144 276.359 191.963 276.465 191.792C276.572 191.6 276.668 191.408 276.753 191.216C276.924 190.853 277.063 190.427 277.169 189.936C277.297 189.424 277.361 188.955 277.361 188.528C277.361 188.187 277.319 187.899 277.233 187.664C277.148 187.429 277.02 187.291 276.849 187.248C276.849 187.248 276.956 187.227 277.169 187.184C277.404 187.141 277.649 187.099 277.905 187.056C278.161 187.013 278.332 186.992 278.417 186.992C278.545 186.971 278.663 186.96 278.769 186.96C278.876 186.939 278.972 186.928 279.057 186.928C279.271 186.928 279.409 187.013 279.473 187.184C279.559 187.355 279.591 187.728 279.569 188.304C279.548 188.837 279.441 189.488 279.249 190.256C279.057 191.003 278.855 191.653 278.641 192.208C278.364 192.933 278.108 193.669 277.873 194.416C277.639 195.163 277.521 195.781 277.521 196.272C277.521 196.699 277.639 196.976 277.873 197.104C278.044 197.168 278.193 197.2 278.321 197.2C278.812 197.2 279.292 196.955 279.761 196.464C280.252 195.973 280.721 195.323 281.169 194.512C281.617 193.68 282.033 192.795 282.417 191.856C282.268 191.557 282.161 191.227 282.097 190.864C282.033 190.501 282.001 190.149 282.001 189.808C282.001 189.403 282.055 189.019 282.161 188.656C282.417 187.803 282.769 187.195 283.217 186.832C283.687 186.448 284.081 186.256 284.401 186.256C284.807 186.256 285.009 186.437 285.009 186.8C285.009 186.885 284.977 187.013 284.913 187.184C284.871 187.227 284.849 187.291 284.849 187.376C284.7 187.824 284.476 188.475 284.177 189.328C283.9 190.181 283.548 191.12 283.121 192.144C282.716 193.147 282.225 194.117 281.649 195.056C281.095 195.973 280.476 196.731 279.793 197.328C279.111 197.925 278.364 198.224 277.553 198.224ZM298.463 205.456V173.936H299.839V205.456H298.463ZM326.913 200.944C324.822 200.944 322.902 200.635 321.153 200.016C319.425 199.397 318.028 198.491 316.961 197.296C315.894 196.08 315.308 194.587 315.201 192.816C315.158 192.091 315.276 191.291 315.553 190.416C315.83 189.541 316.214 188.677 316.705 187.824C317.217 186.949 317.814 186.171 318.497 185.488C319.201 184.784 319.948 184.251 320.737 183.888C320.801 183.845 320.897 183.813 321.025 183.792C321.174 183.771 321.281 183.76 321.345 183.76C321.473 183.76 321.537 183.792 321.537 183.856C321.537 183.963 321.377 184.133 321.057 184.368C320.161 185.072 319.425 185.883 318.849 186.8C318.252 187.717 317.804 188.699 317.505 189.744C317.206 190.789 317.057 191.845 317.057 192.912C317.057 194.171 317.324 195.259 317.857 196.176C318.412 197.072 319.148 197.808 320.065 198.384C320.982 198.981 322.028 199.419 323.201 199.696C324.374 199.973 325.601 200.112 326.881 200.112C328.31 200.112 329.718 199.952 331.105 199.632C332.513 199.312 333.793 198.853 334.945 198.256C336.716 197.317 338.113 196.155 339.137 194.768C340.182 193.381 340.705 192.005 340.705 190.64C340.705 189.915 340.545 189.221 340.225 188.56C339.926 187.899 339.436 187.301 338.753 186.768C338.241 186.363 337.612 185.979 336.865 185.616C336.14 185.253 335.361 184.901 334.529 184.56C333.718 184.219 332.918 183.877 332.129 183.536C331.34 183.173 330.646 182.789 330.049 182.384C329.196 181.808 328.566 181.189 328.161 180.528C327.777 179.867 327.585 179.205 327.585 178.544C327.585 177.755 327.809 176.987 328.257 176.24C328.726 175.493 329.356 174.821 330.145 174.224C330.956 173.605 331.862 173.125 332.865 172.784C333.74 172.485 334.689 172.251 335.713 172.08C336.758 171.909 337.782 171.824 338.785 171.824C339.617 171.824 340.406 171.888 341.153 172.016C341.921 172.123 342.593 172.325 343.169 172.624C343.894 172.965 344.449 173.424 344.833 174C345.217 174.555 345.409 175.141 345.409 175.76C345.409 176.613 345.025 177.36 344.257 178C343.98 178.213 343.67 178.416 343.329 178.608C342.988 178.779 342.582 178.928 342.113 179.056C342.028 179.077 341.932 179.088 341.825 179.088C341.569 179.088 341.441 179.013 341.441 178.864C341.441 178.779 341.505 178.693 341.633 178.608C341.782 178.501 341.996 178.437 342.273 178.416C342.913 178.331 343.393 178.085 343.713 177.68C344.054 177.275 344.225 176.805 344.225 176.272C344.225 175.717 344.033 175.173 343.649 174.64C343.286 174.085 342.721 173.627 341.953 173.264C341.185 172.88 340.204 172.688 339.009 172.688C338.326 172.688 337.569 172.763 336.737 172.912C335.926 173.061 335.041 173.307 334.081 173.648C332.908 174.053 331.926 174.651 331.137 175.44C330.369 176.229 329.985 177.072 329.985 177.968C329.985 178.523 330.166 179.088 330.529 179.664C330.913 180.219 331.521 180.752 332.353 181.264C333.057 181.691 333.857 182.117 334.753 182.544C335.649 182.949 336.556 183.365 337.473 183.792C338.39 184.197 339.222 184.635 339.969 185.104C341.142 185.829 341.985 186.608 342.497 187.44C343.009 188.272 343.265 189.125 343.265 190C343.265 191.024 342.956 192.059 342.337 193.104C341.74 194.128 340.95 195.099 339.969 196.016C338.988 196.912 337.91 197.712 336.737 198.416C335.372 199.227 333.825 199.845 332.097 200.272C330.39 200.72 328.662 200.944 326.913 200.944ZM347.625 198C346.814 198 346.217 197.733 345.833 197.2C345.449 196.645 345.257 195.973 345.257 195.184C345.257 194.224 345.481 193.221 345.929 192.176C346.356 191.195 346.9 190.299 347.561 189.488C348.222 188.677 348.937 188.027 349.705 187.536C350.473 187.024 351.22 186.768 351.945 186.768C352.756 186.768 353.353 187.035 353.737 187.568C354.121 188.101 354.313 188.773 354.313 189.584C354.313 190.565 354.089 191.568 353.641 192.592C353.385 193.168 353.022 193.808 352.553 194.512C352.084 195.195 351.55 195.824 350.953 196.4C351.081 196.635 351.262 196.837 351.497 197.008C351.732 197.157 352.052 197.232 352.457 197.232C352.969 197.232 353.449 197.019 353.897 196.592C354.366 196.165 354.793 195.653 355.177 195.056C355.561 194.437 355.902 193.819 356.201 193.2C356.5 192.581 356.745 192.08 356.937 191.696C357.001 191.568 357.108 191.504 357.257 191.504C357.342 191.504 357.406 191.547 357.449 191.632C357.492 191.696 357.481 191.803 357.417 191.952C357.289 192.272 357.076 192.752 356.777 193.392C356.478 194.011 356.116 194.661 355.689 195.344C355.262 196.005 354.772 196.571 354.217 197.04C353.662 197.509 353.044 197.744 352.361 197.744C351.892 197.744 351.486 197.669 351.145 197.52C350.804 197.349 350.526 197.147 350.313 196.912C349.865 197.253 349.417 197.52 348.969 197.712C348.521 197.904 348.073 198 347.625 198ZM348.105 197.296C348.681 197.296 349.3 197.019 349.961 196.464C349.79 196.208 349.662 195.941 349.577 195.664C349.492 195.387 349.449 195.131 349.449 194.896C349.449 194.512 349.534 194.181 349.705 193.904C349.897 193.627 350.185 193.488 350.569 193.488C350.846 193.488 351.07 193.595 351.241 193.808C351.433 194 351.529 194.224 351.529 194.48C351.529 194.544 351.518 194.608 351.497 194.672C351.497 194.715 351.486 194.768 351.465 194.832C351.828 194.341 352.169 193.765 352.489 193.104C353.193 191.589 353.545 190.341 353.545 189.36C353.545 188.869 353.449 188.485 353.257 188.208C353.065 187.931 352.777 187.792 352.393 187.792C351.945 187.792 351.454 187.984 350.921 188.368C350.409 188.752 349.908 189.264 349.417 189.904C348.948 190.544 348.532 191.259 348.169 192.048C347.828 192.773 347.55 193.477 347.337 194.16C347.145 194.821 347.049 195.397 347.049 195.888C347.049 196.315 347.134 196.656 347.305 196.912C347.476 197.168 347.742 197.296 348.105 197.296ZM353 209.232C352.53 209.232 352.125 209.115 351.784 208.88C351.421 208.645 351.24 208.187 351.24 207.504C351.24 206.437 351.56 204.987 352.2 203.152C352.84 201.317 353.618 199.301 354.536 197.104C354.28 196.677 354.152 196.229 354.152 195.76C354.152 195.013 354.365 194.501 354.792 194.224C355.154 193.925 355.538 193.808 355.944 193.872C356.712 192.144 357.49 190.448 358.28 188.784C359.069 187.099 359.826 185.509 360.552 184.016C361.298 182.523 361.97 181.211 362.568 180.08C362.93 179.376 363.304 178.832 363.688 178.448C364.093 178.064 364.616 177.872 365.256 177.872C365.448 177.872 365.672 177.915 365.928 178C366.205 178.064 366.45 178.085 366.664 178.064C366.173 178.533 365.554 179.323 364.808 180.432C364.082 181.52 363.293 182.821 362.44 184.336C361.586 185.851 360.712 187.493 359.816 189.264C358.941 191.013 358.098 192.795 357.288 194.608C357.48 194.864 357.672 195.205 357.864 195.632C358.077 196.059 358.226 196.517 358.312 197.008C358.312 197.072 358.322 197.147 358.344 197.232C358.365 197.296 358.386 197.36 358.408 197.424C358.898 197.445 359.368 197.275 359.816 196.912C360.285 196.549 360.722 196.069 361.128 195.472C361.554 194.875 361.938 194.245 362.28 193.584C362.642 192.923 362.952 192.304 363.208 191.728C363.25 191.643 363.304 191.589 363.368 191.568C363.453 191.525 363.517 191.504 363.56 191.504C363.645 191.504 363.709 191.547 363.752 191.632C363.794 191.696 363.784 191.803 363.72 191.952C363.421 192.613 363.09 193.307 362.728 194.032C362.365 194.736 361.96 195.397 361.512 196.016C361.064 196.613 360.584 197.104 360.072 197.488C359.56 197.851 359.016 198.032 358.44 198.032C358.461 198.181 358.472 198.331 358.472 198.48C358.472 198.651 358.472 198.821 358.472 198.992C358.472 200.101 358.333 201.253 358.056 202.448C357.8 203.643 357.426 204.752 356.936 205.776C356.445 206.8 355.869 207.632 355.208 208.272C354.546 208.912 353.81 209.232 353 209.232ZM357.544 197.552H357.704C357.682 196.997 357.586 196.517 357.416 196.112C357.288 195.813 357.128 195.557 356.936 195.344C356.808 195.643 356.69 195.92 356.584 196.176C356.498 196.411 356.392 196.677 356.264 196.976C356.456 197.36 356.882 197.552 357.544 197.552ZM353.48 208.368C353.693 208.368 353.949 208.24 354.248 207.984C354.546 207.749 354.834 207.44 355.112 207.056C355.645 206.352 356.114 205.488 356.52 204.464C356.925 203.44 357.245 202.373 357.48 201.264C357.714 200.155 357.821 199.12 357.8 198.16C357.757 198.16 357.704 198.16 357.64 198.16C357.597 198.181 357.554 198.192 357.512 198.192C357.234 198.192 356.946 198.139 356.648 198.032C356.349 197.925 356.104 197.797 355.912 197.648C355.357 199.077 354.845 200.485 354.376 201.872C353.885 203.28 353.512 204.517 353.256 205.584C353.17 205.989 353.106 206.341 353.064 206.64C353.021 206.939 353 207.195 353 207.408C353 208.048 353.16 208.368 353.48 208.368ZM364.657 198C364.06 198 363.526 197.797 363.057 197.392C362.588 196.965 362.353 196.304 362.353 195.408C362.353 194.704 362.481 193.84 362.737 192.816C363.014 191.771 363.345 190.693 363.729 189.584C364.134 188.453 364.529 187.429 364.913 186.512H363.217C363.068 186.512 362.993 186.405 362.993 186.192C362.993 186.085 363.014 185.989 363.057 185.904C363.121 185.819 363.206 185.776 363.313 185.776H365.233C365.596 184.965 365.98 184.176 366.385 183.408C366.79 182.64 367.185 181.915 367.569 181.232C368.06 180.379 368.582 179.739 369.137 179.312C369.692 178.885 370.172 178.672 370.577 178.672C370.897 178.672 371.164 178.8 371.377 179.056C371.59 179.291 371.697 179.653 371.697 180.144C371.697 180.443 371.633 180.859 371.505 181.392C371.377 181.904 371.174 182.448 370.897 183.024C370.748 183.323 370.534 183.749 370.257 184.304C370.001 184.859 369.745 185.349 369.489 185.776H371.025C371.174 185.776 371.249 185.883 371.249 186.096C371.249 186.181 371.228 186.277 371.185 186.384C371.142 186.469 371.078 186.512 370.993 186.512H369.105C368.572 187.429 367.964 188.325 367.281 189.2C366.598 190.075 365.788 190.949 364.849 191.824C364.785 192.016 364.7 192.293 364.593 192.656C364.508 193.019 364.422 193.392 364.337 193.776C364.273 194.139 364.209 194.448 364.145 194.704C364.102 194.96 364.081 195.088 364.081 195.088C364.017 195.365 363.985 195.621 363.985 195.856C363.985 196.304 364.092 196.635 364.305 196.848C364.518 197.04 364.764 197.136 365.041 197.136C365.212 197.136 365.382 197.115 365.553 197.072C365.724 197.008 365.916 196.901 366.129 196.752C366.876 196.219 367.526 195.493 368.081 194.576C368.657 193.659 369.158 192.773 369.585 191.92C369.713 191.664 369.841 191.536 369.969 191.536C370.054 191.536 370.097 191.6 370.097 191.728C370.097 191.792 370.065 191.909 370.001 192.08C369.532 193.061 369.137 193.851 368.817 194.448C368.497 195.045 368.188 195.547 367.889 195.952C367.59 196.336 367.238 196.72 366.833 197.104C366.534 197.403 366.193 197.627 365.809 197.776C365.425 197.925 365.041 198 364.657 198ZM367.185 185.776H368.817C369.116 185.221 369.393 184.677 369.649 184.144C369.926 183.611 370.172 183.077 370.385 182.544C370.534 182.203 370.662 181.819 370.769 181.392C370.876 180.965 370.929 180.635 370.929 180.4C370.929 180.08 370.854 179.92 370.705 179.92C370.598 179.92 370.438 180.016 370.225 180.208C370.033 180.379 369.788 180.677 369.489 181.104C369.105 181.637 368.721 182.331 368.337 183.184C367.974 184.016 367.59 184.88 367.185 185.776ZM365.105 190.8C365.724 190.16 366.3 189.477 366.833 188.752C367.388 188.027 367.9 187.28 368.369 186.512H366.865C366.524 187.301 366.204 188.069 365.905 188.816C365.606 189.563 365.34 190.224 365.105 190.8ZM376.63 198.064C376.502 198.064 376.385 198.053 376.278 198.032C376.193 198.032 376.076 198.021 375.926 198C375.393 197.893 375.02 197.605 374.806 197.136C374.614 196.645 374.518 196.123 374.518 195.568C374.518 195.227 374.54 194.896 374.582 194.576C374.646 194.235 374.721 193.936 374.806 193.68C374.614 194.021 374.369 194.437 374.07 194.928C373.772 195.397 373.43 195.867 373.046 196.336C372.662 196.805 372.257 197.2 371.83 197.52C371.404 197.84 370.966 198 370.518 198C370.07 198 369.654 197.872 369.27 197.616C368.886 197.36 368.641 196.997 368.534 196.528C368.513 196.421 368.492 196.325 368.47 196.24C368.47 196.133 368.47 196.037 368.47 195.952C368.47 195.397 368.598 194.864 368.854 194.352C369.132 193.819 369.388 193.307 369.622 192.816C369.558 192.816 369.484 192.795 369.398 192.752C369.334 192.709 369.302 192.645 369.302 192.56C369.302 192.475 369.324 192.389 369.366 192.304C369.43 192.197 369.462 192.133 369.462 192.112C369.484 192.069 369.516 191.995 369.558 191.888C369.622 191.76 369.74 191.525 369.91 191.184C370.102 190.779 370.337 190.299 370.614 189.744C370.913 189.189 371.169 188.699 371.382 188.272C371.617 187.845 371.734 187.632 371.734 187.632C371.969 187.163 372.374 186.928 372.95 186.928H374.934C374.572 187.205 374.241 187.515 373.942 187.856C373.665 188.176 373.313 188.773 372.886 189.648C372.886 189.648 372.812 189.797 372.662 190.096C372.513 190.395 372.321 190.768 372.086 191.216C371.873 191.664 371.649 192.123 371.414 192.592C371.201 193.061 371.02 193.467 370.87 193.808C370.657 194.277 370.497 194.715 370.39 195.12C370.284 195.525 370.23 195.877 370.23 196.176C370.23 196.923 370.476 197.296 370.966 197.296C371.308 197.296 371.692 197.083 372.118 196.656C372.609 196.187 373.11 195.536 373.622 194.704C374.156 193.851 374.668 192.955 375.158 192.016C375.649 191.077 376.086 190.213 376.47 189.424C376.854 188.613 377.142 188.016 377.334 187.632C377.441 187.397 377.58 187.227 377.75 187.12C377.942 186.992 378.209 186.928 378.55 186.928H380.502C380.374 187.056 380.182 187.195 379.926 187.344C379.692 187.493 379.457 187.76 379.222 188.144C378.924 188.656 378.657 189.136 378.422 189.584C378.188 190.011 377.868 190.661 377.462 191.536C377.377 191.728 377.206 192.101 376.95 192.656C376.716 193.211 376.492 193.819 376.278 194.48C376.065 195.141 375.958 195.739 375.958 196.272C375.958 196.613 376.033 196.891 376.182 197.104C376.332 197.317 376.577 197.424 376.918 197.424C377.516 197.424 378.081 197.168 378.614 196.656C379.169 196.144 379.692 195.461 380.182 194.608C380.673 193.755 381.11 192.827 381.494 191.824C381.238 191.184 381.11 190.491 381.11 189.744C381.11 189.296 381.153 188.912 381.238 188.592C381.494 187.76 381.836 187.163 382.262 186.8C382.689 186.437 383.062 186.256 383.382 186.256C383.745 186.256 383.926 186.437 383.926 186.8C383.926 186.885 383.894 187.013 383.83 187.184C383.788 187.184 383.766 187.227 383.766 187.312C383.638 187.739 383.446 188.379 383.19 189.232C382.934 190.085 382.604 191.013 382.198 192.016C381.793 193.019 381.313 193.979 380.758 194.896C380.225 195.813 379.617 196.571 378.934 197.168C378.252 197.765 377.484 198.064 376.63 198.064ZM391.72 198.096C391.485 198.117 391.218 198.064 390.92 197.936C390.621 197.808 390.354 197.573 390.12 197.232C389.906 196.891 389.8 196.411 389.8 195.792C389.8 195.28 389.896 194.661 390.088 193.936C389.832 194.341 389.501 194.843 389.096 195.44C388.69 196.016 388.253 196.528 387.784 196.976C387.378 197.36 386.994 197.637 386.632 197.808C386.269 197.979 385.938 198.064 385.64 198.064C385.085 198.064 384.637 197.819 384.296 197.328C383.954 196.816 383.784 196.155 383.784 195.344C383.784 194.491 383.997 193.52 384.424 192.432C384.85 191.344 385.544 190.213 386.504 189.04C387.122 188.293 387.869 187.696 388.744 187.248C389.64 186.779 390.514 186.544 391.368 186.544C391.858 186.544 392.328 186.629 392.776 186.8C393.224 186.949 393.618 187.205 393.96 187.568C394.109 187.717 394.184 187.888 394.184 188.08C394.184 188.208 394.13 188.315 394.024 188.4C393.917 188.485 393.778 188.507 393.608 188.464C393.373 187.717 392.872 187.344 392.104 187.344C391.741 187.344 391.325 187.461 390.856 187.696C390.13 188.08 389.373 188.709 388.584 189.584C387.816 190.459 387.144 191.365 386.568 192.304C386.482 192.432 386.344 192.677 386.152 193.04C385.981 193.403 385.81 193.808 385.64 194.256C385.469 194.704 385.352 195.141 385.288 195.568C385.266 195.696 385.256 195.792 385.256 195.856C385.256 195.899 385.256 195.973 385.256 196.08C385.256 196.784 385.522 197.136 386.056 197.136C386.696 197.136 387.421 196.667 388.232 195.728C388.786 195.045 389.288 194.331 389.736 193.584C390.184 192.837 390.642 192.037 391.112 191.184C391.432 190.608 391.73 190.128 392.008 189.744C392.285 189.36 392.68 189.168 393.192 189.168C393.426 189.168 393.661 189.2 393.896 189.264C394.13 189.328 394.376 189.339 394.632 189.296C394.461 189.467 394.226 189.787 393.928 190.256C393.65 190.725 393.352 191.259 393.032 191.856C392.712 192.453 392.424 193.061 392.168 193.68C391.912 194.299 391.73 194.832 391.624 195.28C391.602 195.408 391.57 195.589 391.528 195.824C391.506 196.059 391.496 196.229 391.496 196.336C391.496 196.933 391.666 197.232 392.008 197.232C392.349 197.232 392.712 197.029 393.096 196.624C393.501 196.219 393.896 195.717 394.28 195.12C394.664 194.523 395.016 193.925 395.336 193.328C395.656 192.709 395.912 192.208 396.104 191.824C396.189 191.611 396.317 191.504 396.488 191.504C396.594 191.504 396.648 191.579 396.648 191.728C396.648 191.792 396.616 191.909 396.552 192.08C396.296 192.613 395.986 193.221 395.624 193.904C395.261 194.565 394.866 195.216 394.44 195.856C394.013 196.475 393.565 196.997 393.096 197.424C392.648 197.829 392.189 198.053 391.72 198.096ZM399.866 198.032C399.46 198.032 399.055 197.872 398.65 197.552C398.244 197.211 398.042 196.667 398.042 195.92C398.042 195.344 398.18 194.683 398.458 193.936C398.714 193.211 399.055 192.507 399.482 191.824C399.93 191.141 400.25 190.587 400.442 190.16C400.506 189.989 400.538 189.84 400.538 189.712C400.538 189.328 400.292 189.051 399.802 188.88C399.332 188.709 398.714 188.613 397.946 188.592L397.562 189.648C397.327 190.331 396.996 191.131 396.57 192.048C396.164 192.965 395.706 193.851 395.194 194.704C394.703 195.557 394.191 196.24 393.658 196.752C393.615 196.795 393.562 196.816 393.498 196.816C393.412 196.816 393.359 196.763 393.338 196.656C393.295 196.549 393.338 196.421 393.466 196.272C394.298 195.163 395.044 193.936 395.706 192.592C396.367 191.227 396.922 189.84 397.37 188.432C397.839 187.024 398.18 185.723 398.394 184.528C398.458 184.187 398.575 183.941 398.746 183.792C398.916 183.621 399.098 183.536 399.29 183.536C399.567 183.536 399.823 183.675 400.058 183.952C400.292 184.208 400.41 184.581 400.41 185.072C400.41 185.157 400.399 185.253 400.378 185.36C400.378 185.467 400.367 185.573 400.346 185.68C400.26 186.128 400.004 186.555 399.578 186.96C399.172 187.344 398.842 187.632 398.586 187.824C398.799 187.845 399.023 187.867 399.258 187.888C399.492 187.888 399.748 187.888 400.026 187.888C401.028 187.888 402.02 187.824 403.002 187.696C403.044 187.824 403.066 187.92 403.066 187.984C403.066 188.261 402.98 188.613 402.81 189.04C402.66 189.467 402.5 189.851 402.33 190.192C402.244 190.384 402.074 190.736 401.818 191.248C401.562 191.739 401.284 192.304 400.986 192.944C400.687 193.563 400.431 194.181 400.218 194.8C400.026 195.397 399.93 195.909 399.93 196.336C399.93 196.891 400.143 197.168 400.57 197.168C400.89 197.168 401.242 196.965 401.626 196.56C402.01 196.133 402.383 195.621 402.746 195.024C403.13 194.405 403.471 193.808 403.77 193.232C404.09 192.635 404.335 192.165 404.506 191.824C404.591 191.611 404.708 191.504 404.858 191.504C404.943 191.504 404.986 191.579 404.986 191.728C404.986 191.813 404.954 191.941 404.89 192.112C404.655 192.603 404.378 193.157 404.058 193.776C403.738 194.395 403.375 195.003 402.97 195.6C402.586 196.197 402.159 196.72 401.69 197.168C401.242 197.595 400.751 197.872 400.218 198C400.154 198.021 400.036 198.032 399.866 198.032ZM406.673 198.128C405.884 198.128 405.169 197.872 404.529 197.36C403.911 196.848 403.601 196.069 403.601 195.024C403.601 194.064 403.836 193.04 404.305 191.952C404.775 190.843 405.372 189.872 406.097 189.04C406.716 188.315 407.409 187.717 408.177 187.248C408.945 186.779 409.671 186.544 410.353 186.544C410.823 186.544 411.228 186.672 411.569 186.928C411.932 187.205 412.113 187.6 412.113 188.112C412.113 188.645 411.911 189.232 411.505 189.872C411.1 190.512 410.524 191.109 409.777 191.664C409.457 191.899 409.052 192.123 408.561 192.336C408.071 192.549 407.58 192.731 407.089 192.88C406.599 193.008 406.193 193.072 405.873 193.072C405.767 193.328 405.66 193.669 405.553 194.096C405.468 194.523 405.425 194.96 405.425 195.408C405.425 195.941 405.532 196.421 405.745 196.848C405.959 197.275 406.353 197.488 406.929 197.488C407.633 197.488 408.273 197.285 408.849 196.88C409.425 196.475 409.937 195.973 410.385 195.376C410.833 194.757 411.207 194.139 411.505 193.52C411.825 192.901 412.081 192.379 412.273 191.952C412.401 191.653 412.572 191.504 412.785 191.504C412.892 191.504 412.945 191.557 412.945 191.664C412.945 191.749 412.913 191.856 412.849 191.984C412.551 192.624 412.231 193.307 411.889 194.032C411.548 194.736 411.143 195.408 410.673 196.048C410.204 196.667 409.639 197.168 408.977 197.552C408.337 197.936 407.569 198.128 406.673 198.128ZM406.097 192.496C406.396 192.496 406.897 192.389 407.601 192.176C408.305 191.941 408.945 191.579 409.521 191.088C410.076 190.597 410.503 190.064 410.801 189.488C411.1 188.891 411.249 188.389 411.249 187.984C411.249 187.515 411.079 187.28 410.737 187.28C410.481 187.28 410.129 187.451 409.681 187.792C409.233 188.133 408.679 188.709 408.017 189.52C407.612 190.032 407.228 190.587 406.865 191.184C406.503 191.781 406.247 192.219 406.097 192.496ZM429.291 199.792C427.073 199.792 425.238 199.493 423.787 198.896C422.358 198.299 421.291 197.509 420.587 196.528C419.905 195.525 419.563 194.459 419.563 193.328C419.563 192.24 419.873 191.152 420.491 190.064C421.11 188.976 422.006 187.995 423.179 187.12C424.353 186.224 425.782 185.531 427.467 185.04C427.894 184.912 428.406 184.795 429.003 184.688C429.622 184.581 430.187 184.517 430.699 184.496C430.102 184.283 429.494 183.984 428.875 183.6C428.257 183.216 427.745 182.757 427.339 182.224C426.955 181.691 426.785 181.115 426.827 180.496C426.913 179.515 427.254 178.619 427.851 177.808C428.47 176.976 429.259 176.229 430.219 175.568C431.179 174.907 432.235 174.352 433.387 173.904C434.539 173.456 435.702 173.115 436.875 172.88C438.07 172.624 439.19 172.496 440.235 172.496C440.47 172.496 440.694 172.507 440.907 172.528C441.121 172.528 441.323 172.539 441.515 172.56C443.243 172.752 444.502 173.168 445.291 173.808C446.081 174.427 446.475 175.131 446.475 175.92C446.475 176.837 445.974 177.744 444.971 178.64C443.99 179.536 442.625 180.176 440.875 180.56C440.534 180.624 440.267 180.656 440.075 180.656C439.755 180.656 439.595 180.592 439.595 180.464C439.595 180.4 439.691 180.304 439.883 180.176C440.097 180.048 440.385 179.973 440.747 179.952C441.387 179.888 441.995 179.632 442.571 179.184C443.169 178.736 443.649 178.203 444.011 177.584C444.395 176.944 444.587 176.336 444.587 175.76C444.587 175.163 444.342 174.64 443.851 174.192C443.382 173.723 442.561 173.435 441.387 173.328C441.217 173.307 441.035 173.296 440.843 173.296C440.673 173.275 440.491 173.264 440.299 173.264C439.019 173.264 437.729 173.445 436.427 173.808C435.126 174.171 433.931 174.683 432.843 175.344C431.755 176.005 430.881 176.763 430.219 177.616C429.558 178.469 429.227 179.397 429.227 180.4C429.227 181.104 429.398 181.669 429.739 182.096C430.102 182.523 430.55 182.853 431.083 183.088C431.638 183.323 432.214 183.515 432.811 183.664C433.409 183.813 433.963 183.952 434.475 184.08C435.009 184.208 435.425 184.368 435.723 184.56C436.022 184.752 436.129 185.029 436.043 185.392C435.958 185.627 435.766 185.787 435.467 185.872C435.169 185.936 434.774 185.968 434.283 185.968C433.942 185.968 433.558 185.968 433.131 185.968C432.726 185.947 432.289 185.936 431.819 185.936C431.158 185.936 430.465 185.968 429.739 186.032C429.035 186.075 428.31 186.203 427.563 186.416C426.433 186.736 425.43 187.28 424.555 188.048C423.702 188.795 423.03 189.659 422.539 190.64C422.07 191.6 421.835 192.581 421.835 193.584C421.835 194.544 422.091 195.44 422.603 196.272C423.115 197.104 423.926 197.776 425.035 198.288C426.145 198.8 427.606 199.056 429.419 199.056C431.083 199.056 432.694 198.843 434.251 198.416C435.809 197.989 437.249 197.445 438.571 196.784C439.894 196.101 441.025 195.397 441.963 194.672C442.731 194.053 443.35 193.424 443.819 192.784C444.31 192.144 444.555 191.589 444.555 191.12C444.555 190.608 444.267 190.288 443.691 190.16C443.222 190.032 442.987 189.904 442.987 189.776C442.987 189.648 443.158 189.584 443.499 189.584C443.627 189.584 443.766 189.595 443.915 189.616C444.065 189.637 444.214 189.691 444.363 189.776C445.323 190.245 445.803 190.907 445.803 191.76C445.803 192.976 444.939 194.256 443.211 195.6C442.166 196.432 440.886 197.168 439.371 197.808C437.878 198.427 436.257 198.907 434.507 199.248C432.779 199.611 431.041 199.792 429.291 199.792ZM443.83 198.256C444.598 196.699 445.334 195.163 446.038 193.648C446.763 192.112 447.499 190.651 448.246 189.264C448.673 188.496 449.025 187.963 449.302 187.664C449.601 187.344 449.995 187.184 450.486 187.184C450.657 187.184 450.838 187.216 451.03 187.28C451.222 187.323 451.414 187.344 451.606 187.344C451.734 187.344 451.83 187.333 451.894 187.312C451.595 187.483 451.211 187.909 450.742 188.592C450.273 189.253 449.793 190.021 449.302 190.896C448.811 191.771 448.374 192.592 447.99 193.36C448.395 192.869 448.811 192.379 449.238 191.888C449.686 191.397 450.177 190.928 450.71 190.48C451.222 190.032 451.83 189.573 452.534 189.104C453.259 188.613 453.963 188.208 454.646 187.888C455.329 187.568 455.873 187.408 456.278 187.408C456.427 187.408 456.534 187.419 456.598 187.44C456.598 187.44 456.481 187.653 456.246 188.08C456.011 188.485 455.713 189.029 455.35 189.712C455.009 190.373 454.657 191.088 454.294 191.856C453.931 192.603 453.601 193.328 453.302 194.032C453.025 194.715 452.843 195.291 452.758 195.76C452.694 196.037 452.662 196.293 452.662 196.528C452.662 196.869 452.726 197.093 452.854 197.2C452.982 197.307 453.121 197.36 453.27 197.36C453.675 197.36 454.102 197.147 454.55 196.72C454.998 196.272 455.425 195.728 455.83 195.088C456.257 194.448 456.63 193.829 456.95 193.232C457.291 192.613 457.537 192.144 457.686 191.824C457.771 191.653 457.835 191.557 457.878 191.536C457.921 191.493 457.985 191.472 458.07 191.472C458.198 191.472 458.262 191.557 458.262 191.728C458.262 191.835 458.23 191.952 458.166 192.08C457.91 192.571 457.601 193.157 457.238 193.84C456.897 194.523 456.502 195.195 456.054 195.856C455.606 196.496 455.115 197.04 454.582 197.488C454.049 197.915 453.473 198.128 452.854 198.128C452.427 198.128 451.979 197.979 451.51 197.68C451.062 197.381 450.838 196.827 450.838 196.016C450.838 195.781 450.859 195.536 450.902 195.28C450.945 195.003 451.019 194.704 451.126 194.384C451.297 193.957 451.499 193.499 451.734 193.008C451.969 192.517 452.353 191.845 452.886 190.992C453.035 190.757 453.121 190.576 453.142 190.448C453.185 190.32 453.206 190.213 453.206 190.128C453.206 189.872 453.089 189.744 452.854 189.744C452.662 189.744 452.374 189.851 451.99 190.064C451.627 190.277 451.169 190.651 450.614 191.184C450.081 191.696 449.441 192.421 448.694 193.36C447.969 194.299 447.126 195.685 446.166 197.52C446.017 197.797 445.846 197.947 445.654 197.968C445.483 197.989 445.238 198.011 444.918 198.032C444.705 198.053 444.502 198.064 444.31 198.064C444.118 198.085 443.958 198.149 443.83 198.256ZM455.444 208.208C453.417 208.208 452.404 207.376 452.404 205.712C452.404 204.923 452.681 204.219 453.236 203.6C453.791 202.981 454.452 202.448 455.22 202C456.287 201.36 457.321 200.848 458.324 200.464C459.327 200.08 460.276 199.739 461.172 199.44C462.089 199.163 462.953 198.853 463.764 198.512C464.148 197.381 464.404 196.197 464.532 194.96C464.596 194.32 464.628 193.765 464.628 193.296C464.628 192.805 464.596 192.485 464.532 192.336C464.297 192.784 463.988 193.328 463.604 193.968C463.22 194.608 462.783 195.237 462.292 195.856C461.801 196.453 461.268 196.955 460.692 197.36C460.137 197.765 459.561 197.968 458.964 197.968C458.751 197.968 458.548 197.936 458.356 197.872C457.759 197.616 457.321 197.253 457.044 196.784C456.788 196.315 456.66 195.781 456.66 195.184C456.66 194.224 456.937 193.189 457.492 192.08C458.047 190.971 458.708 189.957 459.476 189.04C460.095 188.293 460.82 187.696 461.652 187.248C462.484 186.8 463.327 186.576 464.18 186.576C465.161 186.576 466.079 186.907 466.932 187.568C467.252 187.824 467.412 188.101 467.412 188.4C467.412 188.72 467.284 188.88 467.028 188.88C466.815 188.88 466.665 188.741 466.58 188.464C466.281 187.675 465.801 187.28 465.14 187.28C464.607 187.28 463.999 187.515 463.316 187.984C462.633 188.432 461.993 188.997 461.396 189.68C460.884 190.256 460.383 190.917 459.892 191.664C459.423 192.411 459.028 193.147 458.708 193.872C458.409 194.597 458.26 195.227 458.26 195.76C458.26 196.123 458.345 196.432 458.516 196.688C458.687 196.944 458.953 197.072 459.316 197.072C459.807 197.072 460.319 196.837 460.852 196.368C461.407 195.899 461.929 195.323 462.42 194.64C462.932 193.957 463.369 193.264 463.732 192.56C464.116 191.856 464.383 191.269 464.532 190.8C464.681 190.309 464.884 190.011 465.14 189.904C465.396 189.776 465.652 189.712 465.908 189.712C466.164 189.712 466.377 189.648 466.548 189.52C466.633 189.989 466.687 190.469 466.708 190.96C466.751 191.429 466.772 191.909 466.772 192.4C466.772 194.043 466.559 195.696 466.132 197.36C466.516 197.061 466.911 196.741 467.316 196.4C467.743 196.037 468.105 195.653 468.404 195.248C468.937 194.523 469.332 193.861 469.588 193.264C469.865 192.645 470.079 192.165 470.228 191.824C470.356 191.611 470.495 191.504 470.644 191.504C470.772 191.504 470.836 191.568 470.836 191.696C470.836 191.803 470.793 191.931 470.708 192.08C470.175 193.211 469.684 194.181 469.236 194.992C468.788 195.781 468.297 196.453 467.764 197.008C467.231 197.541 466.569 198 465.78 198.384C465.439 199.408 464.927 200.485 464.244 201.616C463.561 202.747 462.761 203.813 461.844 204.816C460.927 205.819 459.924 206.629 458.836 207.248C457.748 207.888 456.617 208.208 455.444 208.208ZM454.676 207.568C455.145 207.568 455.636 207.461 456.148 207.248C456.681 207.056 457.183 206.821 457.652 206.544C458.121 206.267 458.484 206.032 458.74 205.84C459.231 205.456 459.732 204.976 460.244 204.4C460.756 203.824 461.204 203.269 461.588 202.736C461.951 202.224 462.292 201.68 462.612 201.104C462.953 200.549 463.241 199.995 463.476 199.44C463.305 199.504 463.092 199.579 462.836 199.664C462.601 199.749 462.431 199.813 462.324 199.856C461.62 200.091 460.841 200.357 459.988 200.656C459.156 200.976 458.324 201.317 457.492 201.68C456.66 202.064 455.903 202.48 455.22 202.928C454.623 203.333 454.132 203.867 453.748 204.528C453.343 205.189 453.14 205.765 453.14 206.256C453.14 206.619 453.268 206.928 453.524 207.184C453.759 207.44 454.143 207.568 454.676 207.568ZM473.798 185.008C473.478 185.008 473.211 184.901 472.998 184.688C472.806 184.453 472.71 184.176 472.71 183.856C472.71 183.451 472.87 183.099 473.19 182.8C473.51 182.501 473.862 182.352 474.246 182.352C474.587 182.352 474.865 182.459 475.078 182.672C475.291 182.885 475.398 183.141 475.398 183.44C475.398 183.845 475.238 184.208 474.918 184.528C474.598 184.848 474.225 185.008 473.798 185.008ZM471.206 198C470.417 198 469.862 197.776 469.542 197.328C469.222 196.859 469.062 196.325 469.062 195.728C469.062 195.408 469.094 195.088 469.158 194.768C469.243 194.427 469.339 194.117 469.446 193.84L471.59 188.368C471.654 188.197 471.686 188.048 471.686 187.92C471.686 187.707 471.633 187.525 471.526 187.376C471.419 187.205 471.345 187.088 471.302 187.024L473.062 186.96C473.382 186.939 473.606 186.981 473.734 187.088C473.883 187.173 473.958 187.28 473.958 187.408C473.958 187.536 473.883 187.771 473.734 188.112L471.078 194.352C471.078 194.352 471.014 194.491 470.886 194.768C470.779 195.024 470.715 195.195 470.694 195.28C470.63 195.6 470.587 195.803 470.566 195.888C470.545 195.973 470.534 196.027 470.534 196.048C470.534 196.069 470.534 196.155 470.534 196.304C470.534 196.581 470.598 196.816 470.726 197.008C470.875 197.2 471.121 197.296 471.462 197.296C471.675 197.296 471.921 197.232 472.198 197.104C472.475 196.976 472.678 196.848 472.806 196.72C473.339 196.165 473.862 195.44 474.374 194.544C474.907 193.627 475.398 192.72 475.846 191.824C475.931 191.611 476.038 191.504 476.166 191.504C476.273 191.504 476.326 191.579 476.326 191.728C476.326 191.813 476.294 191.941 476.23 192.112C476.017 192.56 475.75 193.115 475.43 193.776C475.11 194.437 474.726 195.099 474.278 195.76C473.851 196.4 473.382 196.933 472.87 197.36C472.358 197.787 471.803 198 471.206 198ZM472.799 198.256C473.567 196.699 474.303 195.163 475.007 193.648C475.732 192.112 476.468 190.651 477.215 189.264C477.642 188.496 477.994 187.963 478.271 187.664C478.57 187.344 478.964 187.184 479.455 187.184C479.626 187.184 479.807 187.216 479.999 187.28C480.191 187.323 480.383 187.344 480.575 187.344C480.703 187.344 480.799 187.333 480.863 187.312C480.564 187.483 480.18 187.909 479.711 188.592C479.242 189.253 478.762 190.021 478.271 190.896C477.78 191.771 477.343 192.592 476.959 193.36C477.364 192.869 477.78 192.379 478.207 191.888C478.655 191.397 479.146 190.928 479.679 190.48C480.191 190.032 480.799 189.573 481.503 189.104C482.228 188.613 482.932 188.208 483.615 187.888C484.298 187.568 484.842 187.408 485.247 187.408C485.396 187.408 485.503 187.419 485.567 187.44C485.567 187.44 485.45 187.653 485.215 188.08C484.98 188.485 484.682 189.029 484.319 189.712C483.978 190.373 483.626 191.088 483.263 191.856C482.9 192.603 482.57 193.328 482.271 194.032C481.994 194.715 481.812 195.291 481.727 195.76C481.663 196.037 481.631 196.293 481.631 196.528C481.631 196.869 481.695 197.093 481.823 197.2C481.951 197.307 482.09 197.36 482.239 197.36C482.644 197.36 483.071 197.147 483.519 196.72C483.967 196.272 484.394 195.728 484.799 195.088C485.226 194.448 485.599 193.829 485.919 193.232C486.26 192.613 486.506 192.144 486.655 191.824C486.74 191.653 486.804 191.557 486.847 191.536C486.89 191.493 486.954 191.472 487.039 191.472C487.167 191.472 487.231 191.557 487.231 191.728C487.231 191.835 487.199 191.952 487.135 192.08C486.879 192.571 486.57 193.157 486.207 193.84C485.866 194.523 485.471 195.195 485.023 195.856C484.575 196.496 484.084 197.04 483.551 197.488C483.018 197.915 482.442 198.128 481.823 198.128C481.396 198.128 480.948 197.979 480.479 197.68C480.031 197.381 479.807 196.827 479.807 196.016C479.807 195.781 479.828 195.536 479.871 195.28C479.914 195.003 479.988 194.704 480.095 194.384C480.266 193.957 480.468 193.499 480.703 193.008C480.938 192.517 481.322 191.845 481.855 190.992C482.004 190.757 482.09 190.576 482.111 190.448C482.154 190.32 482.175 190.213 482.175 190.128C482.175 189.872 482.058 189.744 481.823 189.744C481.631 189.744 481.343 189.851 480.959 190.064C480.596 190.277 480.138 190.651 479.583 191.184C479.05 191.696 478.41 192.421 477.663 193.36C476.938 194.299 476.095 195.685 475.135 197.52C474.986 197.797 474.815 197.947 474.623 197.968C474.452 197.989 474.207 198.011 473.887 198.032C473.674 198.053 473.471 198.064 473.279 198.064C473.087 198.085 472.927 198.149 472.799 198.256ZM488.861 198.128C488.072 198.128 487.357 197.872 486.717 197.36C486.098 196.848 485.789 196.069 485.789 195.024C485.789 194.064 486.024 193.04 486.493 191.952C486.962 190.843 487.56 189.872 488.285 189.04C488.904 188.315 489.597 187.717 490.365 187.248C491.133 186.779 491.858 186.544 492.541 186.544C493.01 186.544 493.416 186.672 493.757 186.928C494.12 187.205 494.301 187.6 494.301 188.112C494.301 188.645 494.098 189.232 493.693 189.872C493.288 190.512 492.712 191.109 491.965 191.664C491.645 191.899 491.24 192.123 490.749 192.336C490.258 192.549 489.768 192.731 489.277 192.88C488.786 193.008 488.381 193.072 488.061 193.072C487.954 193.328 487.848 193.669 487.741 194.096C487.656 194.523 487.613 194.96 487.613 195.408C487.613 195.941 487.72 196.421 487.933 196.848C488.146 197.275 488.541 197.488 489.117 197.488C489.821 197.488 490.461 197.285 491.037 196.88C491.613 196.475 492.125 195.973 492.573 195.376C493.021 194.757 493.394 194.139 493.693 193.52C494.013 192.901 494.269 192.379 494.461 191.952C494.589 191.653 494.76 191.504 494.973 191.504C495.08 191.504 495.133 191.557 495.133 191.664C495.133 191.749 495.101 191.856 495.037 191.984C494.738 192.624 494.418 193.307 494.077 194.032C493.736 194.736 493.33 195.408 492.861 196.048C492.392 196.667 491.826 197.168 491.165 197.552C490.525 197.936 489.757 198.128 488.861 198.128ZM488.285 192.496C488.584 192.496 489.085 192.389 489.789 192.176C490.493 191.941 491.133 191.579 491.709 191.088C492.264 190.597 492.69 190.064 492.989 189.488C493.288 188.891 493.437 188.389 493.437 187.984C493.437 187.515 493.266 187.28 492.925 187.28C492.669 187.28 492.317 187.451 491.869 187.792C491.421 188.133 490.866 188.709 490.205 189.52C489.8 190.032 489.416 190.587 489.053 191.184C488.69 191.781 488.434 192.219 488.285 192.496ZM496.798 198.128C496.009 198.128 495.294 197.872 494.654 197.36C494.036 196.848 493.726 196.069 493.726 195.024C493.726 194.064 493.961 193.04 494.43 191.952C494.9 190.843 495.497 189.872 496.222 189.04C496.841 188.315 497.534 187.717 498.302 187.248C499.07 186.779 499.796 186.544 500.478 186.544C500.948 186.544 501.353 186.672 501.694 186.928C502.057 187.205 502.238 187.6 502.238 188.112C502.238 188.645 502.036 189.232 501.63 189.872C501.225 190.512 500.649 191.109 499.902 191.664C499.582 191.899 499.177 192.123 498.686 192.336C498.196 192.549 497.705 192.731 497.214 192.88C496.724 193.008 496.318 193.072 495.998 193.072C495.892 193.328 495.785 193.669 495.678 194.096C495.593 194.523 495.55 194.96 495.55 195.408C495.55 195.941 495.657 196.421 495.87 196.848C496.084 197.275 496.478 197.488 497.054 197.488C497.758 197.488 498.398 197.285 498.974 196.88C499.55 196.475 500.062 195.973 500.51 195.376C500.958 194.757 501.332 194.139 501.63 193.52C501.95 192.901 502.206 192.379 502.398 191.952C502.526 191.653 502.697 191.504 502.91 191.504C503.017 191.504 503.07 191.557 503.07 191.664C503.07 191.749 503.038 191.856 502.974 191.984C502.676 192.624 502.356 193.307 502.014 194.032C501.673 194.736 501.268 195.408 500.798 196.048C500.329 196.667 499.764 197.168 499.102 197.552C498.462 197.936 497.694 198.128 496.798 198.128ZM496.222 192.496C496.521 192.496 497.022 192.389 497.726 192.176C498.43 191.941 499.07 191.579 499.646 191.088C500.201 190.597 500.628 190.064 500.926 189.488C501.225 188.891 501.374 188.389 501.374 187.984C501.374 187.515 501.204 187.28 500.862 187.28C500.606 187.28 500.254 187.451 499.806 187.792C499.358 188.133 498.804 188.709 498.142 189.52C497.737 190.032 497.353 190.587 496.99 191.184C496.628 191.781 496.372 192.219 496.222 192.496ZM506.272 198.032C505.867 198.032 505.461 197.872 505.056 197.552C504.651 197.211 504.448 196.667 504.448 195.92C504.448 195.344 504.587 194.683 504.864 193.936C505.12 193.211 505.461 192.507 505.888 191.824C506.336 191.141 506.656 190.587 506.848 190.16C506.912 189.989 506.944 189.84 506.944 189.712C506.944 189.328 506.699 189.051 506.208 188.88C505.739 188.709 505.12 188.613 504.352 188.592L503.968 189.648C503.733 190.331 503.403 191.131 502.976 192.048C502.571 192.965 502.112 193.851 501.6 194.704C501.109 195.557 500.597 196.24 500.064 196.752C500.021 196.795 499.968 196.816 499.904 196.816C499.819 196.816 499.765 196.763 499.744 196.656C499.701 196.549 499.744 196.421 499.872 196.272C500.704 195.163 501.451 193.936 502.112 192.592C502.773 191.227 503.328 189.84 503.776 188.432C504.245 187.024 504.587 185.723 504.8 184.528C504.864 184.187 504.981 183.941 505.152 183.792C505.323 183.621 505.504 183.536 505.696 183.536C505.973 183.536 506.229 183.675 506.464 183.952C506.699 184.208 506.816 184.581 506.816 185.072C506.816 185.157 506.805 185.253 506.784 185.36C506.784 185.467 506.773 185.573 506.752 185.68C506.667 186.128 506.411 186.555 505.984 186.96C505.579 187.344 505.248 187.632 504.992 187.824C505.205 187.845 505.429 187.867 505.664 187.888C505.899 187.888 506.155 187.888 506.432 187.888C507.435 187.888 508.427 187.824 509.408 187.696C509.451 187.824 509.472 187.92 509.472 187.984C509.472 188.261 509.387 188.613 509.216 189.04C509.067 189.467 508.907 189.851 508.736 190.192C508.651 190.384 508.48 190.736 508.224 191.248C507.968 191.739 507.691 192.304 507.392 192.944C507.093 193.563 506.837 194.181 506.624 194.8C506.432 195.397 506.336 195.909 506.336 196.336C506.336 196.891 506.549 197.168 506.976 197.168C507.296 197.168 507.648 196.965 508.032 196.56C508.416 196.133 508.789 195.621 509.152 195.024C509.536 194.405 509.877 193.808 510.176 193.232C510.496 192.635 510.741 192.165 510.912 191.824C510.997 191.611 511.115 191.504 511.264 191.504C511.349 191.504 511.392 191.579 511.392 191.728C511.392 191.813 511.36 191.941 511.296 192.112C511.061 192.603 510.784 193.157 510.464 193.776C510.144 194.395 509.781 195.003 509.376 195.6C508.992 196.197 508.565 196.72 508.096 197.168C507.648 197.595 507.157 197.872 506.624 198C506.56 198.021 506.443 198.032 506.272 198.032ZM524.432 205.456V173.936H525.808V205.456H524.432ZM543.922 210.032C543.196 210.032 542.578 209.936 542.066 209.744C541.255 209.445 540.668 209.093 540.306 208.688C539.922 208.304 539.73 207.888 539.73 207.44C539.73 206.864 540.018 206.256 540.594 205.616C541.148 204.997 541.927 204.389 542.93 203.792C543.932 203.216 545.084 202.704 546.386 202.256C547.687 201.829 549.074 201.509 550.546 201.296C551.207 201.189 551.932 201.104 552.722 201.04C553.532 200.976 554.343 200.912 555.154 200.848C555.986 200.805 556.732 200.784 557.394 200.784C558.183 199.44 558.823 198.171 559.314 196.976C559.826 195.781 560.274 194.405 560.658 192.848L560.786 192.336C560.38 192.72 559.804 193.189 559.058 193.744C558.332 194.277 557.479 194.821 556.498 195.376C555.538 195.909 554.503 196.357 553.394 196.72C552.306 197.083 551.186 197.264 550.034 197.264C549.138 197.264 548.274 197.125 547.442 196.848C546.546 196.528 545.735 195.995 545.01 195.248C544.306 194.48 543.74 193.541 543.314 192.432C542.908 191.301 542.706 190.053 542.706 188.688C542.706 187.685 542.834 186.619 543.09 185.488C543.346 184.336 543.762 183.163 544.338 181.968C543.676 181.285 543.154 180.528 542.77 179.696C542.407 178.864 542.226 178.011 542.226 177.136C542.226 176.368 542.386 175.611 542.706 174.864C543.026 174.096 543.527 173.36 544.21 172.656C544.402 172.443 544.583 172.336 544.754 172.336C544.839 172.336 544.882 172.379 544.882 172.464C544.882 172.592 544.807 172.741 544.658 172.912C544.167 173.509 543.804 174.139 543.57 174.8C543.335 175.461 543.218 176.123 543.218 176.784C543.218 177.531 543.356 178.267 543.634 178.992C543.932 179.717 544.348 180.389 544.882 181.008C544.988 180.795 545.095 180.581 545.202 180.368C545.33 180.155 545.458 179.941 545.586 179.728C546.61 178.064 547.858 176.635 549.33 175.44C550.823 174.245 552.412 173.328 554.098 172.688C555.783 172.027 557.426 171.696 559.026 171.696C559.303 171.696 559.57 171.707 559.826 171.728C560.103 171.749 560.38 171.781 560.658 171.824C562.727 172.144 564.274 172.837 565.298 173.904C566.322 174.971 566.834 176.165 566.834 177.488C566.834 178.405 566.578 179.323 566.066 180.24C565.575 181.157 564.818 182 563.794 182.768C562.791 183.536 561.532 184.155 560.018 184.624C558.524 185.093 556.786 185.349 554.802 185.392C553.244 185.413 551.708 185.221 550.194 184.816C548.679 184.389 547.399 183.835 546.354 183.152C545.82 184.283 545.426 185.392 545.17 186.48C544.935 187.547 544.818 188.549 544.818 189.488C544.818 191.067 545.148 192.421 545.81 193.552C546.471 194.683 547.388 195.44 548.562 195.824C548.903 195.931 549.244 196.005 549.586 196.048C549.948 196.091 550.3 196.112 550.642 196.112C551.602 196.112 552.562 195.973 553.522 195.696C554.503 195.397 555.41 195.013 556.242 194.544C557.074 194.075 557.778 193.584 558.354 193.072C558.951 192.539 559.346 192.048 559.538 191.6C560.028 190.491 560.508 189.723 560.978 189.296C561.468 188.848 561.906 188.624 562.29 188.624C562.61 188.624 562.876 188.773 563.09 189.072C563.324 189.349 563.41 189.733 563.346 190.224C563.132 191.995 562.642 193.712 561.874 195.376C561.127 197.04 560.156 198.843 558.962 200.784C560.412 200.805 561.714 200.88 562.866 201.008C564.039 201.157 565.095 201.349 566.034 201.584C566.29 201.648 566.46 201.723 566.546 201.808C566.652 201.915 566.706 202 566.706 202.064C566.706 202.213 566.578 202.288 566.322 202.288C566.194 202.288 566.012 202.256 565.778 202.192C565.287 202.064 564.636 201.947 563.826 201.84C563.015 201.755 562.14 201.691 561.202 201.648C560.284 201.605 559.399 201.584 558.546 201.584C557.65 202.864 556.583 204.016 555.346 205.04C554.13 206.085 552.839 206.981 551.474 207.728C550.108 208.475 548.764 209.04 547.442 209.424C546.14 209.829 544.967 210.032 543.922 210.032ZM553.938 184.432C554.172 184.432 554.407 184.432 554.642 184.432C554.876 184.411 555.111 184.389 555.346 184.368C557.5 184.155 559.324 183.664 560.818 182.896C562.332 182.107 563.474 181.179 564.242 180.112C565.031 179.045 565.426 178 565.426 176.976C565.426 175.973 565.042 175.088 564.274 174.32C563.527 173.531 562.375 173.019 560.818 172.784C560.604 172.741 560.423 172.72 560.274 172.72C560.146 172.72 559.964 172.72 559.73 172.72C558.343 172.72 556.903 173.051 555.41 173.712C553.938 174.373 552.53 175.301 551.186 176.496C549.863 177.669 548.722 179.035 547.762 180.592C547.527 180.997 547.346 181.307 547.218 181.52C547.09 181.733 546.94 181.989 546.77 182.288C547.644 182.949 548.7 183.472 549.938 183.856C551.196 184.24 552.53 184.432 553.938 184.432ZM543.89 209.04C544.722 209.04 545.703 208.88 546.834 208.56C547.964 208.261 549.138 207.792 550.354 207.152C551.591 206.533 552.775 205.765 553.906 204.848C555.036 203.931 556.028 202.864 556.882 201.648C555.858 201.669 554.844 201.712 553.842 201.776C552.86 201.861 551.879 201.989 550.898 202.16C549.852 202.331 548.764 202.619 547.634 203.024C546.524 203.451 545.49 203.941 544.53 204.496C543.591 205.051 542.823 205.605 542.226 206.16C541.65 206.736 541.362 207.259 541.362 207.728C541.362 208.005 541.479 208.251 541.714 208.464C541.97 208.677 542.364 208.837 542.898 208.944C543.196 209.008 543.527 209.04 543.89 209.04ZM572.438 198.096C572.204 198.117 571.937 198.064 571.638 197.936C571.34 197.808 571.073 197.573 570.838 197.232C570.625 196.891 570.518 196.411 570.518 195.792C570.518 195.28 570.614 194.661 570.806 193.936C570.55 194.341 570.22 194.843 569.814 195.44C569.409 196.016 568.972 196.528 568.502 196.976C568.097 197.36 567.713 197.637 567.35 197.808C566.988 197.979 566.657 198.064 566.358 198.064C565.804 198.064 565.356 197.819 565.014 197.328C564.673 196.816 564.502 196.155 564.502 195.344C564.502 194.491 564.716 193.52 565.142 192.432C565.569 191.344 566.262 190.213 567.222 189.04C567.841 188.293 568.588 187.696 569.462 187.248C570.358 186.779 571.233 186.544 572.086 186.544C572.577 186.544 573.046 186.629 573.494 186.8C573.942 186.949 574.337 187.205 574.678 187.568C574.828 187.717 574.902 187.888 574.902 188.08C574.902 188.208 574.849 188.315 574.742 188.4C574.636 188.485 574.497 188.507 574.326 188.464C574.092 187.717 573.59 187.344 572.822 187.344C572.46 187.344 572.044 187.461 571.574 187.696C570.849 188.08 570.092 188.709 569.302 189.584C568.534 190.459 567.862 191.365 567.286 192.304C567.201 192.432 567.062 192.677 566.87 193.04C566.7 193.403 566.529 193.808 566.358 194.256C566.188 194.704 566.07 195.141 566.006 195.568C565.985 195.696 565.974 195.792 565.974 195.856C565.974 195.899 565.974 195.973 565.974 196.08C565.974 196.784 566.241 197.136 566.774 197.136C567.414 197.136 568.14 196.667 568.95 195.728C569.505 195.045 570.006 194.331 570.454 193.584C570.902 192.837 571.361 192.037 571.83 191.184C572.15 190.608 572.449 190.128 572.726 189.744C573.004 189.36 573.398 189.168 573.91 189.168C574.145 189.168 574.38 189.2 574.614 189.264C574.849 189.328 575.094 189.339 575.35 189.296C575.18 189.467 574.945 189.787 574.646 190.256C574.369 190.725 574.07 191.259 573.75 191.856C573.43 192.453 573.142 193.061 572.886 193.68C572.63 194.299 572.449 194.832 572.342 195.28C572.321 195.408 572.289 195.589 572.246 195.824C572.225 196.059 572.214 196.229 572.214 196.336C572.214 196.933 572.385 197.232 572.726 197.232C573.068 197.232 573.43 197.029 573.814 196.624C574.22 196.219 574.614 195.717 574.998 195.12C575.382 194.523 575.734 193.925 576.054 193.328C576.374 192.709 576.63 192.208 576.822 191.824C576.908 191.611 577.036 191.504 577.206 191.504C577.313 191.504 577.366 191.579 577.366 191.728C577.366 191.792 577.334 191.909 577.27 192.08C577.014 192.613 576.705 193.221 576.342 193.904C575.98 194.565 575.585 195.216 575.158 195.856C574.732 196.475 574.284 196.997 573.814 197.424C573.366 197.829 572.908 198.053 572.438 198.096ZM573.768 198.16C574.558 196.645 575.304 195.131 576.008 193.616C576.712 192.08 577.427 190.629 578.152 189.264C578.579 188.496 578.931 187.963 579.208 187.664C579.507 187.344 579.902 187.184 580.392 187.184C580.563 187.184 580.744 187.216 580.936 187.28C581.128 187.323 581.32 187.344 581.512 187.344C581.64 187.344 581.736 187.333 581.8 187.312C581.502 187.483 581.118 187.909 580.648 188.592C580.179 189.253 579.699 190.021 579.208 190.896C578.718 191.771 578.28 192.592 577.896 193.36C578.302 192.869 578.718 192.379 579.144 191.888C579.592 191.397 580.083 190.928 580.616 190.48C581.086 190.075 581.576 189.637 582.088 189.168C582.622 188.677 583.144 188.261 583.656 187.92C584.168 187.579 584.616 187.408 585 187.408C585.15 187.408 585.246 187.419 585.288 187.44C585.694 187.611 585.896 187.888 585.896 188.272C585.896 188.4 585.843 188.592 585.736 188.848C585.459 189.573 585.096 190.32 584.648 191.088C584.222 191.835 583.816 192.592 583.432 193.36C583.752 192.976 584.147 192.507 584.616 191.952C585.107 191.397 585.598 190.907 586.088 190.48C586.558 190.053 587.155 189.605 587.88 189.136C588.606 188.667 589.32 188.261 590.024 187.92C590.728 187.579 591.294 187.408 591.72 187.408C591.87 187.408 591.976 187.419 592.04 187.44C592.04 187.44 591.923 187.653 591.688 188.08C591.454 188.485 591.155 189.029 590.792 189.712C590.451 190.373 590.099 191.088 589.736 191.856C589.374 192.603 589.043 193.328 588.744 194.032C588.467 194.715 588.286 195.291 588.2 195.76C588.136 196.037 588.104 196.293 588.104 196.528C588.104 196.869 588.168 197.093 588.296 197.2C588.424 197.307 588.563 197.36 588.712 197.36C589.139 197.36 589.576 197.136 590.024 196.688C590.472 196.24 590.899 195.707 591.304 195.088C591.731 194.448 592.104 193.829 592.424 193.232C592.744 192.613 592.979 192.144 593.128 191.824C593.256 191.589 593.384 191.472 593.512 191.472C593.64 191.472 593.704 191.557 593.704 191.728C593.704 191.835 593.672 191.952 593.608 192.08C593.352 192.571 593.043 193.157 592.68 193.84C592.339 194.523 591.944 195.195 591.496 195.856C591.048 196.496 590.547 197.04 589.992 197.488C589.459 197.915 588.883 198.128 588.264 198.128C587.816 198.128 587.358 197.979 586.888 197.68C586.44 197.381 586.216 196.827 586.216 196.016C586.216 195.568 586.312 195.024 586.504 194.384C586.654 193.957 586.878 193.467 587.176 192.912C587.496 192.357 587.88 191.717 588.328 190.992C588.542 190.629 588.648 190.341 588.648 190.128C588.648 189.872 588.52 189.744 588.264 189.744C588.051 189.744 587.752 189.851 587.368 190.064C587.006 190.277 586.547 190.651 585.992 191.184C585.651 191.504 585.246 191.952 584.776 192.528C584.328 193.083 583.87 193.691 583.4 194.352C582.931 195.013 582.526 195.664 582.184 196.304C581.843 196.944 581.619 197.509 581.512 198C581.192 198 580.936 197.872 580.744 197.616C580.552 197.339 580.456 197.019 580.456 196.656C580.456 196.592 580.456 196.528 580.456 196.464C580.456 196.4 580.467 196.325 580.488 196.24C580.595 195.579 580.766 194.96 581 194.384C581.235 193.808 581.502 193.211 581.8 192.592C582.035 192.144 582.27 191.664 582.504 191.152C582.739 190.619 582.856 190.213 582.856 189.936C582.856 189.765 582.792 189.68 582.664 189.68C582.515 189.68 582.27 189.797 581.928 190.032C581.587 190.245 581.118 190.629 580.52 191.184C579.987 191.696 579.336 192.432 578.568 193.392C577.822 194.352 577 195.717 576.104 197.488C575.976 197.723 575.827 197.872 575.656 197.936C575.486 197.979 575.219 198 574.856 198C574.622 198 574.43 198 574.28 198C574.11 198.021 573.939 198.075 573.768 198.16ZM595.33 198.128C594.54 198.128 593.826 197.872 593.186 197.36C592.567 196.848 592.258 196.069 592.258 195.024C592.258 194.064 592.492 193.04 592.962 191.952C593.431 190.843 594.028 189.872 594.754 189.04C595.372 188.315 596.066 187.717 596.834 187.248C597.602 186.779 598.327 186.544 599.01 186.544C599.479 186.544 599.884 186.672 600.226 186.928C600.588 187.205 600.77 187.6 600.77 188.112C600.77 188.645 600.567 189.232 600.162 189.872C599.756 190.512 599.18 191.109 598.434 191.664C598.114 191.899 597.708 192.123 597.218 192.336C596.727 192.549 596.236 192.731 595.746 192.88C595.255 193.008 594.85 193.072 594.53 193.072C594.423 193.328 594.316 193.669 594.21 194.096C594.124 194.523 594.082 194.96 594.082 195.408C594.082 195.941 594.188 196.421 594.402 196.848C594.615 197.275 595.01 197.488 595.586 197.488C596.29 197.488 596.93 197.285 597.506 196.88C598.082 196.475 598.594 195.973 599.042 195.376C599.49 194.757 599.863 194.139 600.162 193.52C600.482 192.901 600.738 192.379 600.93 191.952C601.058 191.653 601.228 191.504 601.442 191.504C601.548 191.504 601.602 191.557 601.602 191.664C601.602 191.749 601.57 191.856 601.506 191.984C601.207 192.624 600.887 193.307 600.546 194.032C600.204 194.736 599.799 195.408 599.33 196.048C598.86 196.667 598.295 197.168 597.634 197.552C596.994 197.936 596.226 198.128 595.33 198.128ZM594.754 192.496C595.052 192.496 595.554 192.389 596.258 192.176C596.962 191.941 597.602 191.579 598.178 191.088C598.732 190.597 599.159 190.064 599.458 189.488C599.756 188.891 599.906 188.389 599.906 187.984C599.906 187.515 599.735 187.28 599.394 187.28C599.138 187.28 598.786 187.451 598.338 187.792C597.89 188.133 597.335 188.709 596.674 189.52C596.268 190.032 595.884 190.587 595.522 191.184C595.159 191.781 594.903 192.219 594.754 192.496ZM613.052 199.248C612.561 199.248 612.06 199.216 611.548 199.152C610.204 198.981 609.212 198.587 608.572 197.968C607.953 197.328 607.644 196.645 607.644 195.92C607.644 195.131 607.985 194.416 608.668 193.776C609.372 193.136 610.364 192.816 611.644 192.816C612.497 192.816 613.425 192.987 614.428 193.328C614.854 193.456 615.377 193.68 615.996 194C616.636 194.299 617.265 194.608 617.884 194.928C618.502 195.248 618.982 195.504 619.324 195.696C620.262 194.779 621.126 193.723 621.916 192.528C622.726 191.312 623.494 190.021 624.22 188.656C624.945 187.269 625.681 185.872 626.428 184.464C627.174 183.056 627.953 181.691 628.764 180.368C629.596 179.024 630.513 177.797 631.516 176.688C630.406 176.005 629.18 175.483 627.836 175.12C626.513 174.736 625.148 174.544 623.74 174.544C623.206 174.544 622.662 174.576 622.108 174.64C621.574 174.704 621.03 174.789 620.476 174.896C618.492 175.323 616.817 176.005 615.452 176.944C614.086 177.861 613.052 178.875 612.348 179.984C611.665 181.072 611.324 182.107 611.324 183.088C611.324 183.813 611.516 184.453 611.9 185.008C612.284 185.563 612.87 185.957 613.66 186.192C614.236 186.363 614.737 186.448 615.164 186.448C615.868 186.448 616.476 186.309 616.988 186.032C617.521 185.733 617.969 185.371 618.332 184.944C618.694 184.517 618.961 184.101 619.132 183.696C619.324 183.291 619.43 182.96 619.452 182.704C619.452 182.555 619.548 182.48 619.74 182.48C620.038 182.48 620.156 182.661 620.092 183.024C619.985 183.877 619.665 184.624 619.132 185.264C618.598 185.883 617.958 186.373 617.212 186.736C616.465 187.077 615.697 187.248 614.908 187.248C614.396 187.248 613.862 187.163 613.308 186.992C612.326 186.651 611.494 186.064 610.812 185.232C610.15 184.379 609.82 183.376 609.82 182.224C609.82 181.093 610.193 179.963 610.94 178.832C611.708 177.68 612.924 176.645 614.588 175.728C616.252 174.811 618.428 174.16 621.116 173.776C622.012 173.648 622.918 173.584 623.836 173.584C625.35 173.584 626.833 173.765 628.284 174.128C629.756 174.491 631.142 175.013 632.444 175.696L633.244 174.768C633.436 174.597 633.702 174.384 634.044 174.128C634.406 173.872 634.769 173.627 635.132 173.392C635.494 173.157 635.761 173.008 635.932 172.944C636.209 172.837 636.433 172.784 636.604 172.784C636.732 172.784 636.796 172.816 636.796 172.88C636.796 173.029 636.625 173.211 636.284 173.424C636.07 173.573 635.878 173.744 635.708 173.936C635.537 174.107 635.409 174.245 635.324 174.352C635.004 174.8 634.748 175.163 634.556 175.44C634.385 175.717 634.15 176.08 633.852 176.528C635.814 177.829 637.414 179.515 638.652 181.584C639.889 183.632 640.508 185.979 640.508 188.624C640.508 189.179 640.476 189.744 640.412 190.32C640.284 191.685 639.91 192.923 639.292 194.032C638.673 195.141 637.862 196.08 636.86 196.848C635.878 197.616 634.78 198.203 633.564 198.608C632.369 199.035 631.11 199.248 629.788 199.248C629.297 199.248 628.806 199.216 628.316 199.152C626.225 198.896 624.497 198.555 623.132 198.128C621.788 197.723 620.604 197.296 619.58 196.848C617.638 198.448 615.462 199.248 613.052 199.248ZM629.244 198.288C630.95 198.288 632.454 197.925 633.756 197.2C635.078 196.453 636.145 195.483 636.956 194.288C637.766 193.093 638.246 191.803 638.396 190.416C638.46 189.904 638.492 189.392 638.492 188.88C638.492 186.555 637.99 184.443 636.988 182.544C636.006 180.624 634.705 179.013 633.084 177.712C632.145 179.184 631.174 180.741 630.172 182.384C629.19 184.027 628.198 185.659 627.196 187.28C626.193 188.88 625.212 190.363 624.252 191.728C623.313 193.093 622.428 194.224 621.596 195.12C621.446 195.248 621.254 195.44 621.02 195.696C620.806 195.931 620.582 196.123 620.348 196.272C621.35 196.72 622.492 197.125 623.772 197.488C625.052 197.851 626.556 198.107 628.284 198.256C628.476 198.277 628.636 198.288 628.764 198.288C628.913 198.288 629.073 198.288 629.244 198.288ZM612.348 198.256C613.521 198.32 614.62 198.181 615.644 197.84C616.668 197.477 617.617 196.976 618.492 196.336C617.724 195.973 616.945 195.6 616.156 195.216C615.366 194.811 614.534 194.448 613.66 194.128C613.084 193.936 612.572 193.84 612.124 193.84C611.334 193.84 610.737 194.064 610.332 194.512C609.926 194.939 609.724 195.419 609.724 195.952C609.724 196.528 609.948 197.051 610.396 197.52C610.844 197.968 611.494 198.213 612.348 198.256ZM644.205 198.128C643.415 198.128 642.701 197.872 642.061 197.36C641.442 196.848 641.133 196.069 641.133 195.024C641.133 194.064 641.367 193.04 641.837 191.952C642.306 190.843 642.903 189.872 643.629 189.04C644.247 188.315 644.941 187.717 645.709 187.248C646.477 186.779 647.202 186.544 647.885 186.544C648.354 186.544 648.759 186.672 649.101 186.928C649.463 187.205 649.645 187.6 649.645 188.112C649.645 188.645 649.442 189.232 649.037 189.872C648.631 190.512 648.055 191.109 647.309 191.664C646.989 191.899 646.583 192.123 646.093 192.336C645.602 192.549 645.111 192.731 644.621 192.88C644.13 193.008 643.725 193.072 643.405 193.072C643.298 193.328 643.191 193.669 643.085 194.096C642.999 194.523 642.957 194.96 642.957 195.408C642.957 195.941 643.063 196.421 643.277 196.848C643.49 197.275 643.885 197.488 644.461 197.488C645.165 197.488 645.805 197.285 646.381 196.88C646.957 196.475 647.469 195.973 647.917 195.376C648.365 194.757 648.738 194.139 649.037 193.52C649.357 192.901 649.613 192.379 649.805 191.952C649.933 191.653 650.103 191.504 650.317 191.504C650.423 191.504 650.477 191.557 650.477 191.664C650.477 191.749 650.445 191.856 650.381 191.984C650.082 192.624 649.762 193.307 649.421 194.032C649.079 194.736 648.674 195.408 648.205 196.048C647.735 196.667 647.17 197.168 646.509 197.552C645.869 197.936 645.101 198.128 644.205 198.128ZM643.629 192.496C643.927 192.496 644.429 192.389 645.133 192.176C645.837 191.941 646.477 191.579 647.053 191.088C647.607 190.597 648.034 190.064 648.333 189.488C648.631 188.891 648.781 188.389 648.781 187.984C648.781 187.515 648.61 187.28 648.269 187.28C648.013 187.28 647.661 187.451 647.213 187.792C646.765 188.133 646.21 188.709 645.549 189.52C645.143 190.032 644.759 190.587 644.397 191.184C644.034 191.781 643.778 192.219 643.629 192.496ZM651.022 198.224C650.361 198.224 649.902 198.053 649.646 197.712C649.39 197.371 649.262 196.933 649.262 196.4C649.262 195.845 649.358 195.216 649.55 194.512C649.763 193.808 649.987 193.115 650.222 192.432C650.073 192.645 649.923 192.752 649.774 192.752C649.689 192.752 649.625 192.709 649.582 192.624C649.539 192.539 649.55 192.443 649.614 192.336C649.721 192.144 649.827 191.963 649.934 191.792C650.041 191.6 650.137 191.408 650.222 191.216C650.393 190.853 650.531 190.427 650.638 189.936C650.766 189.424 650.83 188.955 650.83 188.528C650.83 188.187 650.787 187.899 650.702 187.664C650.617 187.429 650.489 187.291 650.318 187.248C650.318 187.248 650.425 187.227 650.638 187.184C650.873 187.141 651.118 187.099 651.374 187.056C651.63 187.013 651.801 186.992 651.886 186.992C652.014 186.971 652.131 186.96 652.238 186.96C652.345 186.939 652.441 186.928 652.526 186.928C652.739 186.928 652.878 187.013 652.942 187.184C653.027 187.355 653.059 187.728 653.038 188.304C653.017 188.837 652.91 189.488 652.718 190.256C652.526 191.003 652.323 191.653 652.11 192.208C651.833 192.933 651.577 193.669 651.342 194.416C651.107 195.163 650.99 195.781 650.99 196.272C650.99 196.699 651.107 196.976 651.342 197.104C651.513 197.168 651.662 197.2 651.79 197.2C652.281 197.2 652.761 196.955 653.23 196.464C653.721 195.973 654.19 195.323 654.638 194.512C655.086 193.68 655.502 192.795 655.886 191.856C655.737 191.557 655.63 191.227 655.566 190.864C655.502 190.501 655.47 190.149 655.47 189.808C655.47 189.403 655.523 189.019 655.63 188.656C655.886 187.803 656.238 187.195 656.686 186.832C657.155 186.448 657.55 186.256 657.87 186.256C658.275 186.256 658.478 186.437 658.478 186.8C658.478 186.885 658.446 187.013 658.382 187.184C658.339 187.227 658.318 187.291 658.318 187.376C658.169 187.824 657.945 188.475 657.646 189.328C657.369 190.181 657.017 191.12 656.59 192.144C656.185 193.147 655.694 194.117 655.118 195.056C654.563 195.973 653.945 196.731 653.262 197.328C652.579 197.925 651.833 198.224 651.022 198.224Z" fill="white"/>
</g>
<defs>
<filter id="filter0_d_1_2" x="-97.5015" y="228.5" width="973.003" height="175.887" filterUnits="userSpaceOnUse" color-interpolation-filters="sRGB">
<feFlood flood-opacity="0" result="BackgroundImageFix"/>
<feColorMatrix in="SourceAlpha" type="matrix" values="0 0 0 0 0 0 0 0 0 0 0 0 0 0 0 0 0 0 127 0" result="hardAlpha"/>
<feOffset dy="4"/>
<feGaussianBlur stdDeviation="2"/>
<feComposite in2="hardAlpha" operator="out"/>
<feColorMatrix type="matrix" values="0 0 0 0 0 0 0 0 0 0 0 0 0 0 0 0 0 0 0.15 0"/>
<feBlend mode="normal" in2="BackgroundImageFix" result="effect1_dropShadow_1_2"/>
<feBlend mode="normal" in="SourceGraphic" in2="effect1_dropShadow_1_2" result="shape"/>
</filter>
<filter id="filter1_d_1_2" x="558" y="-40" width="89" height="89" filterUnits="userSpaceOnUse" color-interpolation-filters="sRGB">
<feFlood flood-opacity="0" result="BackgroundImageFix"/>
<feColorMatrix in="SourceAlpha" type="matrix" values="0 0 0 0 0 0 0 0 0 0 0 0 0 0 0 0 0 0 127 0" result="hardAlpha"/>
<feOffset dy="4"/>
<feGaussianBlur stdDeviation="2"/>
<feComposite in2="hardAlpha" operator="out"/>
<feColorMatrix type="matrix" values="0 0 0 0 0 0 0 0 0 0 0 0 0 0 0 0 0 0 0.15 0"/>
<feBlend mode="normal" in2="BackgroundImageFix" result="effect1_dropShadow_1_2"/>
<feBlend mode="normal" in="SourceGraphic" in2="effect1_dropShadow_1_2" result="shape"/>
</filter>
<filter id="filter2_d_1_2" x="551.051" y="-85.5013" width="380.451" height="378.003" filterUnits="userSpaceOnUse" color-interpolation-filters="sRGB">
<feFlood flood-opacity="0" result="BackgroundImageFix"/>
<feColorMatrix in="SourceAlpha" type="matrix" values="0 0 0 0 0 0 0 0 0 0 0 0 0 0 0 0 0 0 127 0" result="hardAlpha"/>
<feOffset dy="4"/>
<feGaussianBlur stdDeviation="2"/>
<feComposite in2="hardAlpha" operator="out"/>
<feColorMatrix type="matrix" values="0 0 0 0 0 0 0 0 0 0 0 0 0 0 0 0 0 0 0.15 0"/>
<feBlend mode="normal" in2="BackgroundImageFix" result="effect1_dropShadow_1_2"/>
<feBlend mode="normal" in="SourceGraphic" in2="effect1_dropShadow_1_2" result="shape"/>
</filter>
<filter id="filter3_d_1_2" x="-89.4709" y="-132.485" width="528.835" height="318.777" filterUnits="userSpaceOnUse" color-interpolation-filters="sRGB">
<feFlood flood-opacity="0" result="BackgroundImageFix"/>
<feColorMatrix in="SourceAlpha" type="matrix" values="0 0 0 0 0 0 0 0 0 0 0 0 0 0 0 0 0 0 127 0" result="hardAlpha"/>
<feOffset dy="4"/>
<feGaussianBlur stdDeviation="2"/>
<feComposite in2="hardAlpha" operator="out"/>
<feColorMatrix type="matrix" values="0 0 0 0 0 0 0 0 0 0 0 0 0 0 0 0 0 0 0.15 0"/>
<feBlend mode="normal" in2="BackgroundImageFix" result="effect1_dropShadow_1_2"/>
<feBlend mode="normal" in="SourceGraphic" in2="effect1_dropShadow_1_2" result="shape"/>
</filter>
<filter id="filter4_d_1_2" x="215" y="239" width="39" height="39" filterUnits="userSpaceOnUse" color-interpolation-filters="sRGB">
<feFlood flood-opacity="0" result="BackgroundImageFix"/>
<feColorMatrix in="SourceAlpha" type="matrix" values="0 0 0 0 0 0 0 0 0 0 0 0 0 0 0 0 0 0 127 0" result="hardAlpha"/>
<feOffset dy="4"/>
<feGaussianBlur stdDeviation="2"/>
<feComposite in2="hardAlpha" operator="out"/>
<feColorMatrix type="matrix" values="0 0 0 0 0 0 0 0 0 0 0 0 0 0 0 0 0 0 0.15 0"/>
<feBlend mode="normal" in2="BackgroundImageFix" result="effect1_dropShadow_1_2"/>
<feBlend mode="normal" in="SourceGraphic" in2="effect1_dropShadow_1_2" result="shape"/>
</filter>
<filter id="filter5_d_1_2" x="83" y="25" width="49" height="49" filterUnits="userSpaceOnUse" color-interpolation-filters="sRGB">
<feFlood flood-opacity="0" result="BackgroundImageFix"/>
<feColorMatrix in="SourceAlpha" type="matrix" values="0 0 0 0 0 0 0 0 0 0 0 0 0 0 0 0 0 0 127 0" result="hardAlpha"/>
<feOffset dy="4"/>
<feGaussianBlur stdDeviation="2"/>
<feComposite in2="hardAlpha" operator="out"/>
<feColorMatrix type="matrix" values="0 0 0 0 0 0 0 0 0 0 0 0 0 0 0 0 0 0 0.15 0"/>
<feBlend mode="normal" in2="BackgroundImageFix" result="effect1_dropShadow_1_2"/>
<feBlend mode="normal" in="SourceGraphic" in2="effect1_dropShadow_1_2" result="shape"/>
</filter>
<filter id="filter6_d_1_2" x="707.336" y="169.228" width="97.6478" height="101.52" filterUnits="userSpaceOnUse" color-interpolation-filters="sRGB">
<feFlood flood-opacity="0" result="BackgroundImageFix"/>
<feColorMatrix in="SourceAlpha" type="matrix" values="0 0 0 0 0 0 0 0 0 0 0 0 0 0 0 0 0 0 127 0" result="hardAlpha"/>
<feOffset dy="4"/>
<feGaussianBlur stdDeviation="2"/>
<feComposite in2="hardAlpha" operator="out"/>
<feColorMatrix type="matrix" values="0 0 0 0 0 0 0 0 0 0 0 0 0 0 0 0 0 0 0.15 0"/>
<feBlend mode="normal" in2="BackgroundImageFix" result="effect1_dropShadow_1_2"/>
<feBlend mode="normal" in="SourceGraphic" in2="effect1_dropShadow_1_2" result="shape"/>
</filter>
<filter id="filter7_d_1_2" x="39.7185" y="166.493" width="35.312" height="37.045" filterUnits="userSpaceOnUse" color-interpolation-filters="sRGB">
<feFlood flood-opacity="0" result="BackgroundImageFix"/>
<feColorMatrix in="SourceAlpha" type="matrix" values="0 0 0 0 0 0 0 0 0 0 0 0 0 0 0 0 0 0 127 0" result="hardAlpha"/>
<feOffset dy="4"/>
<feGaussianBlur stdDeviation="2"/>
<feComposite in2="hardAlpha" operator="out"/>
<feColorMatrix type="matrix" values="0 0 0 0 0 0 0 0 0 0 0 0 0 0 0 0 0 0 0.15 0"/>
<feBlend mode="normal" in2="BackgroundImageFix" result="effect1_dropShadow_1_2"/>
<feBlend mode="normal" in="SourceGraphic" in2="effect1_dropShadow_1_2" result="shape"/>
</filter>
<filter id="filter8_d_1_2" x="233.348" y="75.8414" width="58.767" height="63.0866" filterUnits="userSpaceOnUse" color-interpolation-filters="sRGB">
<feFlood flood-opacity="0" result="BackgroundImageFix"/>
<feColorMatrix in="SourceAlpha" type="matrix" values="0 0 0 0 0 0 0 0 0 0 0 0 0 0 0 0 0 0 127 0" result="hardAlpha"/>
<feOffset dy="4"/>
<feGaussianBlur stdDeviation="2"/>
<feComposite in2="hardAlpha" operator="out"/>
<feColorMatrix type="matrix" values="0 0 0 0 0 0 0 0 0 0 0 0 0 0 0 0 0 0 0.15 0"/>
<feBlend mode="normal" in2="BackgroundImageFix" result="effect1_dropShadow_1_2"/>
<feBlend mode="normal" in="SourceGraphic" in2="effect1_dropShadow_1_2" result="shape"/>
</filter>
<filter id="filter9_bdd_1_2" x="-49" y="85" width="913" height="168" filterUnits="userSpaceOnUse" color-interpolation-filters="sRGB">
<feFlood flood-opacity="0" result="BackgroundImageFix"/>
<feGaussianBlur in="BackgroundImage" stdDeviation="5"/>
<feComposite in2="SourceAlpha" operator="in" result="effect1_backgroundBlur_1_2"/>
<feColorMatrix in="SourceAlpha" type="matrix" values="0 0 0 0 0 0 0 0 0 0 0 0 0 0 0 0 0 0 127 0" result="hardAlpha"/>
<feMorphology radius="4" operator="dilate" in="SourceAlpha" result="effect2_dropShadow_1_2"/>
<feOffset dy="16"/>
<feGaussianBlur stdDeviation="8"/>
<feComposite in2="hardAlpha" operator="out"/>
<feColorMatrix type="matrix" values="0 0 0 0 0.0791667 0 0 0 0 0.0791667 0 0 0 0 0.0791667 0 0 0 0.15 0"/>
<feBlend mode="normal" in2="effect1_backgroundBlur_1_2" result="effect2_dropShadow_1_2"/>
<feColorMatrix in="SourceAlpha" type="matrix" values="0 0 0 0 0 0 0 0 0 0 0 0 0 0 0 0 0 0 127 0" result="hardAlpha"/>
<feMorphology radius="4" operator="dilate" in="SourceAlpha" result="effect3_dropShadow_1_2"/>
<feOffset dy="8"/>
<feGaussianBlur stdDeviation="4"/>
<feComposite in2="hardAlpha" operator="out"/>
<feColorMatrix type="matrix" values="0 0 0 0 0 0 0 0 0 0 0 0 0 0 0 0 0 0 0.1 0"/>
<feBlend mode="normal" in2="effect2_dropShadow_1_2" result="effect3_dropShadow_1_2"/>
<feBlend mode="normal" in="SourceGraphic" in2="effect3_dropShadow_1_2" result="shape"/>
</filter>
<linearGradient id="paint0_linear_1_2" x1="820" y1="0" x2="1.80436e-05" y2="312" gradientUnits="userSpaceOnUse">
<stop stop-color="#3B3F5C"/>
<stop offset="1" stop-color="#374A66"/>
</linearGradient>
<clipPath id="clip0_1_2">
<rect width="820" height="312" fill="white"/>
</clipPath>
</defs>
</svg>
